<?xml version="1.0" encoding="utf-8"?>
<!-- Generator: Adobe Illustrator 21.1.0, SVG Export Plug-In . SVG Version: 6.00 Build 0)  -->
<svg version="1.1" id="Layer_1" xmlns="http://www.w3.org/2000/svg" xmlns:xlink="http://www.w3.org/1999/xlink" x="0px" y="0px"
	 viewBox="0 0 400 115.3" style="enable-background:new 0 0 400 115.3;" xml:space="preserve">
<style type="text/css">
	.st0{display:none;}
	.st1{display:inline;fill:#FFFDEF;}
	.st2{display:inline;fill:#95C11F;}
	.st3{display:inline;fill:url(#SVGID_1_);}
	.st4{display:inline;}
	.st5{filter:url(#Adobe_OpacityMaskFilter);}
	.st6{mask:url(#SVGID_2_);}
	.st7{display:inline;fill:#212121;}
	.st8{font-family:'Signika-Semibold';}
	.st9{font-size:100px;}
	.st10{fill:#444444;}
	.st11{fill:#29BBE2;}
</style>
<g id="Livello_3" class="st0">
	<rect x="-210.5" y="-125.3" class="st1" width="500" height="500"/>
</g>
<g id="Livello_4" class="st0">
	<path class="st2" d="M124.1,57.3c0,4.8-0.4,9.5-1.1,14c-2.5,15.5-9,29.6-18.5,41.2c-3.7,4.6-7.9,8.8-12.5,12.5
		c-11.5,9.4-25.5,15.9-40.8,18.5c-4.7,0.8-9.5,1.2-14.4,1.2c-48.2,0-87.3-39.1-87.3-87.3C-50.5,9.1-11.4-30,36.8-30
		C85-30,124.1,9.1,124.1,57.3z"/>
	
		<linearGradient id="SVGID_1_" gradientUnits="userSpaceOnUse" x1="36.6071" y1="61.125" x2="98.3621" y2="-0.63" gradientTransform="matrix(1 0 0 -1 0 118)">
		<stop  offset="0" style="stop-color:#F9B233"/>
		<stop  offset="1" style="stop-color:#FFFFFF"/>
	</linearGradient>
	<path class="st3" d="M123,71.3c-2.5,15.5-9,29.6-18.5,41.2L92,125c-11.5,9.4-25.5,15.9-40.8,18.5L0.6,92.9l72-72L123,71.3z"/>
</g>
<g id="Livello_5" class="st0">
	<g class="st4">
		<defs>
			<filter id="Adobe_OpacityMaskFilter" filterUnits="userSpaceOnUse" x="-2.9" y="129.4" width="79.5" height="17.3">
				<feColorMatrix  type="matrix" values="1 0 0 0 0  0 1 0 0 0  0 0 1 0 0  0 0 0 1 0"/>
			</filter>
		</defs>
		<mask maskUnits="userSpaceOnUse" x="-2.9" y="129.4" width="79.5" height="17.3" id="SVGID_2_">
			<g class="st5">
				
					<image style="overflow:visible;enable-background:new    ;" width="354" height="96" xlink:href="A4E97F425E9DD19.jpeg"  transform="matrix(0.2359 0 0 0.2225 -4.9237 127.4141)">
				</image>
			</g>
		</mask>
		<g class="st6">
			<ellipse cx="36.8" cy="138.1" rx="39.7" ry="8.7"/>
		</g>
	</g>
</g>
<g id="Livello_2" class="st0">
	<text transform="matrix(1 0 0 1 -138.4556 198.0802)" class="st7 st8 st9">emerald</text>
</g>
<g>
	<g>
		<g>
			<g>
				<path d="M64.4,64.2c-2.6,0-4.6-0.7-6-2.2c-1.4-1.5-2.1-3.5-2.1-6.3V35.5h-4c-0.3,0-0.6-0.1-0.9-0.3c-0.2-0.2-0.4-0.5-0.4-1v-2.3
					l5.4-0.7l1.3-10.2c0-0.3,0.2-0.6,0.4-0.8c0.2-0.2,0.5-0.3,0.9-0.3h2.9v11.4h9.4v4.2h-9.4v19.8c0,1.4,0.3,2.4,1,3.1
					c0.7,0.7,1.5,1,2.6,1c0.6,0,1.1-0.1,1.6-0.2c0.4-0.2,0.8-0.3,1.2-0.5c0.3-0.2,0.6-0.4,0.8-0.5c0.2-0.2,0.4-0.2,0.6-0.2
					c0.3,0,0.6,0.2,0.8,0.6l1.7,2.8c-1,0.9-2.2,1.7-3.6,2.2C67.3,63.9,65.9,64.2,64.4,64.2z"/>
			</g>
			<g>
				<path d="M86.4,20.3c0,0.6-0.1,1.1-0.3,1.6c-0.2,0.5-0.5,0.9-0.9,1.3c-0.4,0.4-0.8,0.7-1.3,0.9c-0.5,0.2-1,0.3-1.6,0.3
					c-0.6,0-1.1-0.1-1.6-0.3c-0.5-0.2-0.9-0.5-1.3-0.9c-0.4-0.4-0.7-0.8-0.9-1.3c-0.2-0.5-0.3-1-0.3-1.6c0-0.6,0.1-1.1,0.3-1.6
					c0.2-0.5,0.5-1,0.9-1.3c0.4-0.4,0.8-0.7,1.3-0.9c0.5-0.2,1-0.3,1.6-0.3c0.6,0,1.1,0.1,1.6,0.3c0.5,0.2,0.9,0.5,1.3,0.9
					c0.4,0.4,0.7,0.8,0.9,1.3C86.3,19.2,86.4,19.7,86.4,20.3z M85.1,30.7v33h-5.8v-33H85.1z"/>
			</g>
			<g>
				<path d="M95.3,63.6v-33h3.3c0.6,0,1.1,0.1,1.3,0.4c0.2,0.2,0.4,0.7,0.5,1.2l0.4,5.1c1.1-2.3,2.5-4.1,4.2-5.4
					c1.7-1.3,3.6-1.9,5.8-1.9c0.9,0,1.7,0.1,2.5,0.3c0.7,0.2,1.4,0.5,2.1,0.9l-0.7,4.3c-0.2,0.5-0.5,0.8-1,0.8
					c-0.3,0-0.8-0.1-1.4-0.3c-0.6-0.2-1.5-0.3-2.6-0.3c-2,0-3.7,0.6-5.1,1.8c-1.4,1.2-2.5,2.9-3.4,5.1v21H95.3z"/>
			</g>
			<g>
				<path d="M144.6,63.6H142c-0.6,0-1-0.1-1.4-0.3c-0.3-0.2-0.6-0.5-0.7-1.1l-0.7-3.1c-0.9,0.8-1.7,1.5-2.5,2.1
					c-0.8,0.6-1.7,1.1-2.6,1.6c-0.9,0.4-1.9,0.7-2.9,1c-1,0.2-2.2,0.3-3.4,0.3c-1.3,0-2.5-0.2-3.6-0.5c-1.1-0.4-2.1-0.9-2.9-1.6
					c-0.8-0.7-1.5-1.6-2-2.7c-0.5-1.1-0.7-2.4-0.7-3.9c0-1.3,0.4-2.6,1.1-3.8c0.7-1.2,1.9-2.3,3.5-3.2c1.6-0.9,3.7-1.7,6.3-2.3
					c2.6-0.6,5.7-0.9,9.5-0.9v-2.6c0-2.6-0.5-4.5-1.6-5.8c-1.1-1.3-2.7-2-4.9-2c-1.4,0-2.6,0.2-3.6,0.5c-1,0.4-1.8,0.8-2.5,1.2
					c-0.7,0.4-1.3,0.8-1.8,1.2c-0.5,0.4-1,0.5-1.5,0.5c-0.4,0-0.7-0.1-1-0.3c-0.3-0.2-0.5-0.5-0.7-0.8l-1-1.9
					c1.8-1.8,3.8-3.1,5.9-3.9c2.1-0.9,4.4-1.3,7-1.3c1.8,0,3.5,0.3,4.9,0.9c1.4,0.6,2.6,1.5,3.6,2.5c1,1.1,1.7,2.4,2.2,3.9
					c0.5,1.5,0.7,3.2,0.7,5.1V63.6z M129.5,60.1c1,0,2-0.1,2.8-0.3c0.8-0.2,1.6-0.5,2.4-0.9c0.7-0.4,1.5-0.8,2.1-1.4
					c0.7-0.5,1.4-1.2,2-1.9v-6.8c-2.7,0-4.9,0.2-6.8,0.5c-1.9,0.3-3.4,0.8-4.6,1.3c-1.2,0.5-2,1.2-2.6,1.9c-0.5,0.7-0.8,1.6-0.8,2.5
					c0,0.9,0.1,1.6,0.4,2.3c0.3,0.6,0.7,1.2,1.1,1.6c0.5,0.4,1,0.7,1.7,0.9C128.1,60,128.8,60.1,129.5,60.1z"/>
			</g>
			<g>
				<path d="M153.3,63.6v-33h3.5c0.8,0,1.3,0.4,1.6,1.2l0.5,3.6c1.4-1.6,3-2.9,4.8-3.8c1.8-1,3.8-1.5,6.1-1.5c1.8,0,3.4,0.3,4.8,0.9
					c1.4,0.6,2.5,1.4,3.5,2.5c0.9,1.1,1.6,2.4,2.1,4c0.5,1.5,0.7,3.2,0.7,5.1v21H175v-21c0-2.5-0.6-4.4-1.7-5.8
					c-1.1-1.4-2.9-2.1-5.2-2.1c-1.7,0-3.3,0.4-4.8,1.2c-1.5,0.8-2.9,1.9-4.1,3.4v24.3H153.3z"/>
			</g>
			<g>
				<path d="M212.8,63.6c-0.8,0-1.3-0.4-1.6-1.2l-0.5-4c-1.4,1.7-3,3.1-4.8,4.1c-1.8,1-3.9,1.5-6.2,1.5c-1.9,0-3.6-0.4-5.1-1.1
					c-1.5-0.7-2.9-1.8-3.9-3.2c-1.1-1.4-1.9-3.2-2.5-5.3c-0.6-2.1-0.9-4.5-0.9-7.3c0-2.4,0.3-4.7,1-6.8c0.7-2.1,1.6-3.9,2.8-5.5
					c1.2-1.5,2.7-2.8,4.5-3.6c1.8-0.9,3.8-1.3,6-1.3c2,0,3.7,0.3,5.2,1c1.4,0.7,2.7,1.6,3.8,2.9V15.7h5.8v48H212.8z M201.5,59.4
					c1.9,0,3.5-0.4,5-1.3c1.4-0.9,2.7-2.1,3.9-3.7v-16c-1.1-1.4-2.2-2.4-3.5-3c-1.3-0.6-2.7-0.9-4.2-0.9c-3.1,0-5.4,1.1-7.1,3.3
					c-1.6,2.2-2.5,5.3-2.5,9.4c0,2.1,0.2,4,0.6,5.5c0.4,1.5,0.9,2.8,1.6,3.8c0.7,1,1.6,1.7,2.6,2.2C199,59.2,200.2,59.4,201.5,59.4z
					"/>
			</g>
			<g>
				<path d="M239.3,30.1c2.4,0,4.6,0.4,6.5,1.2c1.9,0.8,3.6,1.9,4.9,3.4c1.4,1.5,2.4,3.3,3.1,5.4c0.7,2.1,1.1,4.4,1.1,7
					c0,2.6-0.4,4.9-1.1,7c-0.7,2.1-1.8,3.9-3.1,5.3c-1.4,1.5-3,2.6-4.9,3.4c-1.9,0.8-4.1,1.2-6.5,1.2c-2.4,0-4.6-0.4-6.5-1.2
					c-1.9-0.8-3.6-1.9-5-3.4c-1.4-1.5-2.4-3.3-3.2-5.3c-0.7-2.1-1.1-4.4-1.1-7c0-2.6,0.4-4.9,1.1-7c0.7-2.1,1.8-3.9,3.2-5.4
					c1.4-1.5,3-2.6,5-3.4C234.7,30.5,236.9,30.1,239.3,30.1z M239.3,59.6c3.3,0,5.7-1.1,7.3-3.3c1.6-2.2,2.4-5.2,2.4-9.1
					c0-3.9-0.8-7-2.4-9.2c-1.6-2.2-4-3.3-7.3-3.3c-1.6,0-3.1,0.3-4.3,0.8c-1.2,0.6-2.2,1.4-3,2.4c-0.8,1.1-1.4,2.4-1.8,3.9
					c-0.4,1.6-0.6,3.3-0.6,5.3c0,2,0.2,3.7,0.6,5.2c0.4,1.5,1,2.8,1.8,3.9c0.8,1.1,1.8,1.9,3,2.4C236.2,59.3,237.6,59.6,239.3,59.6z
					"/>
			</g>
		</g>
	</g>
	<g>
		<path d="M64.1,87.5c0,0.5-0.1,0.9-0.2,1.3c-0.1,0.4-0.2,0.7-0.4,1c-0.2,0.3-0.3,0.6-0.5,0.9c-0.2,0.3-0.4,0.6-0.5,0.8
			s-0.3,0.6-0.4,0.9c-0.1,0.3-0.2,0.6-0.2,1c0,0.4,0.1,0.7,0.3,1.1s0.4,0.6,0.6,1s0.4,0.7,0.6,1.1c0.2,0.4,0.3,0.9,0.3,1.4
			c0,0.7-0.2,1.3-0.5,1.9c-0.3,0.6-0.7,1.1-1.3,1.6c-0.6,0.5-1.3,0.8-2.1,1.1c-0.8,0.3-1.7,0.4-2.8,0.4c-0.8,0-1.6-0.1-2.2-0.3
			c-0.7-0.2-1.2-0.4-1.7-0.7c-0.5-0.3-0.8-0.7-1.1-1.1c-0.3-0.4-0.4-0.9-0.4-1.4c0-0.7,0.2-1.4,0.6-1.9c0.4-0.5,0.9-1,1.5-1.3
			c0.6-0.3,1.3-0.6,2.1-0.8c0.8-0.2,1.6-0.2,2.5-0.2c0.3,0,0.7,0,1,0c0.3,0,0.7,0.1,1,0.1c-0.1-0.2-0.2-0.4-0.2-0.6
			c-0.1-0.2-0.1-0.4-0.1-0.6c0-0.3,0-0.6,0.1-0.9c0.1-0.3,0.2-0.7,0.4-1c-0.4,0.2-0.8,0.4-1.2,0.6c-0.4,0.1-0.9,0.2-1.5,0.2
			c-0.5,0-1.1-0.1-1.5-0.3c-0.5-0.2-0.9-0.4-1.2-0.8c-0.4-0.3-0.6-0.8-0.8-1.3c-0.2-0.5-0.3-1.1-0.3-1.8c0-0.7,0.1-1.3,0.4-2
			c0.2-0.7,0.6-1.2,1.1-1.7c0.5-0.5,1.1-0.9,1.8-1.2c0.7-0.3,1.5-0.5,2.4-0.5c1,0,1.9,0.2,2.7,0.7h3.9l-0.1,0.8
			c0,0.2-0.1,0.3-0.2,0.4c-0.1,0.1-0.2,0.2-0.4,0.2l-1.8,0.3c0.1,0.2,0.1,0.5,0.2,0.8C64.1,86.9,64.1,87.2,64.1,87.5z M61.5,98.1
			c0-0.2,0-0.5-0.1-0.7c0-0.2-0.1-0.4-0.2-0.6c-0.5-0.1-1-0.1-1.4-0.2c-0.4,0-0.9-0.1-1.3-0.1c-0.8,0-1.4,0.1-2,0.2
			c-0.6,0.1-1,0.3-1.4,0.5c-0.4,0.2-0.6,0.5-0.8,0.8c-0.2,0.3-0.3,0.6-0.3,0.9c0,0.7,0.3,1.2,0.8,1.5c0.6,0.4,1.4,0.5,2.4,0.5
			c0.6,0,1.2-0.1,1.7-0.2c0.5-0.2,0.9-0.4,1.3-0.7c0.4-0.3,0.6-0.6,0.8-1C61.4,98.9,61.5,98.5,61.5,98.1z M58.7,91.4
			c0.5,0,1-0.1,1.3-0.3c0.4-0.2,0.7-0.5,1-0.9c0.3-0.4,0.5-0.8,0.6-1.2c0.1-0.4,0.2-0.9,0.2-1.4c0-0.8-0.2-1.4-0.6-1.9
			c-0.4-0.4-1-0.6-1.7-0.6c-0.5,0-1,0.1-1.3,0.3c-0.4,0.2-0.7,0.5-1,0.8c-0.3,0.3-0.5,0.7-0.6,1.2c-0.1,0.4-0.2,0.9-0.2,1.4
			c0,0.8,0.2,1.5,0.6,1.9C57.4,91.2,58,91.4,58.7,91.4z"/>
		<path d="M70.7,83.6l-1.1,9c0,0.2,0,0.4,0,0.5c0,0.2,0,0.3,0,0.5c0,0.8,0.1,1.3,0.4,1.7c0.3,0.4,0.7,0.6,1.4,0.6
			c0.4,0,0.9-0.1,1.3-0.4c0.5-0.2,0.9-0.6,1.3-1c0.4-0.4,0.8-1,1.2-1.6c0.4-0.6,0.7-1.3,1-2l0.9-7.4h2.5l-1.7,14.2h-1.2
			c-0.3,0-0.5-0.1-0.7-0.2s-0.2-0.3-0.2-0.6c0,0,0-0.1,0-0.3c0-0.2,0-0.3,0-0.5s0-0.4,0-0.5c0-0.2,0-0.2,0-0.3l0.1-1.1
			c-0.8,1.2-1.6,2.1-2.5,2.7S71.4,98,70.4,98c-1.1,0-1.9-0.4-2.5-1.1s-0.9-1.8-0.9-3.1c0-0.2,0-0.4,0-0.6c0-0.2,0-0.4,0.1-0.6l1.1-9
			H70.7z"/>
		<path d="M86,83.6l-1.7,14.2h-2.5l1.7-14.2H86z M89.3,77.5l-3.5,3.6c-0.1,0.1-0.3,0.2-0.4,0.3c-0.1,0.1-0.3,0.1-0.5,0.1h-1.4
			l2.3-3.4c0.1-0.2,0.3-0.4,0.4-0.4c0.2-0.1,0.4-0.1,0.7-0.1H89.3z"/>
		<path d="M98.8,97.8h-1.3c-0.3,0-0.6-0.1-0.7-0.3s-0.2-0.4-0.2-0.6l0.3-2.9c-0.3,0.6-0.7,1.1-1.1,1.6c-0.4,0.5-0.8,0.9-1.2,1.2
			c-0.4,0.3-0.9,0.6-1.4,0.8c-0.5,0.2-1,0.3-1.5,0.3c-0.6,0-1.1-0.1-1.5-0.3c-0.5-0.2-0.8-0.5-1.2-1c-0.3-0.4-0.6-1-0.8-1.6
			C88.1,94.5,88,93.8,88,93c0-0.8,0.1-1.7,0.3-2.5c0.2-0.8,0.5-1.6,0.9-2.3c0.4-0.7,0.9-1.4,1.4-2s1.1-1.1,1.8-1.5
			c0.7-0.4,1.4-0.8,2.2-1s1.6-0.4,2.4-0.4c0.6,0,1.2,0,1.8,0.1c0.6,0.1,1.1,0.3,1.7,0.5L98.8,97.8z M92.6,95.9
			c0.5,0,0.9-0.1,1.3-0.4c0.4-0.3,0.9-0.7,1.2-1.2c0.4-0.5,0.8-1.1,1.1-1.8c0.3-0.7,0.6-1.4,0.9-2.3l0.6-4.8
			c-0.2-0.2-0.4-0.2-0.6-0.2c-0.2,0-0.4,0-0.6,0c-0.6,0-1.1,0.1-1.6,0.3c-0.5,0.2-1,0.4-1.5,0.8c-0.5,0.3-0.9,0.7-1.3,1.2
			c-0.4,0.5-0.7,1-1,1.5c-0.3,0.5-0.5,1.1-0.6,1.7c-0.1,0.6-0.2,1.2-0.2,1.9C90.5,94.8,91.2,95.9,92.6,95.9z"/>
		<path d="M117,96.6c-0.4,0.4-0.9,0.6-1.3,0.8c-0.4,0.2-0.9,0.4-1.4,0.4c-0.5,0.1-1,0.1-1.5,0.1c-0.8,0-1.6-0.1-2.2-0.4
			c-0.6-0.3-1.2-0.7-1.6-1.2c-0.4-0.5-0.7-1.1-1-1.8c-0.2-0.7-0.3-1.5-0.3-2.4c0-1.2,0.2-2.3,0.5-3.3c0.4-1.1,0.9-2,1.5-2.8
			c0.6-0.8,1.4-1.5,2.3-2c0.9-0.5,1.9-0.7,2.9-0.7c0.9,0,1.7,0.2,2.4,0.5c0.6,0.3,1.2,0.8,1.7,1.5l-0.8,0.9
			c-0.1,0.1-0.1,0.1-0.2,0.2c-0.1,0-0.2,0.1-0.3,0.1c-0.1,0-0.3-0.1-0.4-0.2c-0.1-0.1-0.3-0.2-0.5-0.4s-0.5-0.3-0.8-0.4
			c-0.3-0.1-0.7-0.2-1.2-0.2c-0.6,0-1.3,0.2-1.8,0.5c-0.6,0.4-1.1,0.8-1.5,1.4c-0.4,0.6-0.8,1.3-1,2.2c-0.2,0.8-0.4,1.7-0.4,2.7
			c0,0.6,0.1,1.1,0.2,1.6s0.3,0.9,0.6,1.2c0.3,0.3,0.6,0.6,1,0.8c0.4,0.2,0.8,0.3,1.3,0.3c0.4,0,0.8,0,1.1-0.1
			c0.3-0.1,0.6-0.2,0.9-0.3c0.3-0.1,0.5-0.3,0.7-0.4c0.2-0.2,0.4-0.3,0.5-0.4c0.2-0.1,0.3-0.2,0.4-0.3c0.1-0.1,0.3-0.1,0.4-0.1
			c0.2,0,0.3,0.1,0.5,0.2l0.6,0.8C117.9,95.8,117.5,96.2,117,96.6z"/>
		<path d="M125.2,98c-0.8,0-1.5-0.1-2.1-0.4c-0.6-0.3-1.2-0.7-1.7-1.2s-0.8-1.1-1.1-1.9c-0.3-0.7-0.4-1.6-0.4-2.5
			c0-1.2,0.2-2.3,0.6-3.4c0.4-1.1,0.9-2,1.5-2.8c0.7-0.8,1.4-1.4,2.3-1.9c0.9-0.5,1.8-0.7,2.9-0.7c0.8,0,1.5,0.1,2.1,0.4
			c0.6,0.3,1.2,0.7,1.7,1.2c0.5,0.5,0.8,1.1,1.1,1.9c0.3,0.7,0.4,1.6,0.4,2.5c0,1.2-0.2,2.3-0.6,3.4c-0.4,1.1-0.9,2-1.5,2.8
			c-0.7,0.8-1.4,1.4-2.3,1.9C127.1,97.8,126.2,98,125.2,98z M125.4,96c0.7,0,1.3-0.2,1.9-0.6c0.6-0.4,1-0.9,1.4-1.5
			c0.4-0.6,0.7-1.3,0.9-2.2c0.2-0.8,0.3-1.7,0.3-2.6c0-1.3-0.3-2.3-0.8-3c-0.5-0.7-1.3-1-2.2-1c-0.7,0-1.3,0.2-1.9,0.6
			c-0.6,0.4-1,0.9-1.4,1.5c-0.4,0.6-0.7,1.3-0.9,2.2c-0.2,0.8-0.3,1.7-0.3,2.6c0,1.3,0.3,2.3,0.8,3C123.6,95.7,124.4,96,125.4,96z"
			/>
		<path d="M134.2,97.8l1.7-14.2h1.3c0.6,0,0.8,0.3,0.8,0.8l-0.2,2.8c0.8-1.3,1.6-2.2,2.6-2.8c1-0.6,1.9-1,3-1c1.1,0,1.9,0.4,2.5,1.1
			c0.6,0.7,0.9,1.8,0.9,3.1c0,0.2,0,0.4,0,0.6c0,0.2,0,0.4-0.1,0.6l-1.1,9.1H143l1.1-9.1c0-0.2,0-0.4,0-0.5c0-0.2,0-0.3,0-0.5
			c0-0.8-0.1-1.3-0.4-1.7c-0.3-0.4-0.7-0.6-1.3-0.6c-0.5,0-0.9,0.1-1.4,0.4c-0.5,0.2-0.9,0.6-1.3,1c-0.4,0.4-0.8,1-1.2,1.6
			c-0.4,0.6-0.7,1.3-0.9,2.1l-0.8,7.2H134.2z"/>
		<path d="M150.2,95.1c0-0.1,0-0.1,0-0.2c0-0.1,0-0.2,0-0.4c0-0.2,0-0.4,0.1-0.7c0-0.3,0.1-0.6,0.1-1.1l0.9-7.1h-1.6
			c-0.1,0-0.2,0-0.3-0.1c-0.1-0.1-0.1-0.2-0.1-0.3c0,0,0-0.1,0-0.2c0-0.1,0-0.2,0-0.3c0-0.1,0-0.2,0-0.3c0-0.1,0-0.2,0-0.3l2.2-0.3
			l1.1-4.4c0-0.1,0.1-0.3,0.2-0.3c0.1-0.1,0.2-0.1,0.4-0.1h1.3l-0.6,4.9h3.7l-0.2,1.8h-3.8l-0.9,7c0,0.4-0.1,0.7-0.1,0.9
			c0,0.2,0,0.4-0.1,0.6c0,0.1,0,0.2,0,0.3c0,0.1,0,0.1,0,0.1c0,0.5,0.1,0.8,0.3,1.1c0.2,0.2,0.5,0.3,0.9,0.3c0.2,0,0.5,0,0.6-0.1
			c0.2-0.1,0.3-0.1,0.5-0.2s0.3-0.2,0.3-0.2c0.1-0.1,0.2-0.1,0.3-0.1c0.1,0,0.1,0,0.2,0.1c0,0,0.1,0.1,0.1,0.2l0.5,1.2
			c-0.4,0.4-1,0.7-1.6,0.9c-0.6,0.2-1.2,0.3-1.8,0.3c-0.9,0-1.6-0.2-2.1-0.7C150.5,96.8,150.2,96.1,150.2,95.1z"/>
		<path d="M158.6,97.8l1.7-14.2h1.3c0.3,0,0.5,0.1,0.6,0.2c0.1,0.1,0.2,0.3,0.2,0.6c0,0,0,0.1,0,0.2c0,0.1,0,0.1,0,0.2
			c0,0.1,0,0.1,0,0.2c0,0.1,0,0.1,0,0.1l-0.2,2.6c0.6-1.3,1.3-2.3,2-3c0.8-0.7,1.5-1.1,2.4-1.1c0.4,0,0.8,0.1,1.2,0.3l-0.4,2.4
			c-0.4-0.2-0.9-0.3-1.3-0.3c-0.9,0-1.7,0.4-2.4,1.3c-0.7,0.9-1.3,2.2-1.8,4l-0.8,6.6H158.6z"/>
		<path d="M178.4,97.8h-1.3c-0.3,0-0.6-0.1-0.7-0.3s-0.2-0.4-0.2-0.6l0.3-2.9c-0.3,0.6-0.7,1.1-1.1,1.6c-0.4,0.5-0.8,0.9-1.2,1.2
			c-0.4,0.3-0.9,0.6-1.4,0.8c-0.5,0.2-1,0.3-1.5,0.3c-0.6,0-1.1-0.1-1.5-0.3c-0.5-0.2-0.8-0.5-1.2-1c-0.3-0.4-0.6-1-0.8-1.6
			c-0.2-0.6-0.3-1.3-0.3-2.1c0-0.8,0.1-1.7,0.3-2.5c0.2-0.8,0.5-1.6,0.9-2.3c0.4-0.7,0.9-1.4,1.4-2c0.5-0.6,1.1-1.1,1.8-1.5
			c0.7-0.4,1.4-0.8,2.2-1s1.6-0.4,2.4-0.4c0.6,0,1.2,0,1.8,0.1c0.6,0.1,1.1,0.3,1.7,0.5L178.4,97.8z M172.2,95.9
			c0.5,0,0.9-0.1,1.3-0.4c0.4-0.3,0.9-0.7,1.2-1.2c0.4-0.5,0.8-1.1,1.1-1.8c0.3-0.7,0.6-1.4,0.9-2.3l0.6-4.8
			c-0.2-0.2-0.4-0.2-0.6-0.2c-0.2,0-0.4,0-0.6,0c-0.6,0-1.1,0.1-1.6,0.3c-0.5,0.2-1,0.4-1.5,0.8c-0.5,0.3-0.9,0.7-1.3,1.2
			c-0.4,0.5-0.7,1-1,1.5c-0.3,0.5-0.5,1.1-0.6,1.7c-0.1,0.6-0.2,1.2-0.2,1.9C170.1,94.8,170.8,95.9,172.2,95.9z"/>
		<path d="M187.8,97.8l2.5-20.7h2.5l-2.5,20.7H187.8z"/>
		<path d="M204.7,97.8h-1.3c-0.3,0-0.6-0.1-0.7-0.3c-0.1-0.2-0.2-0.4-0.2-0.6l0.3-2.9c-0.3,0.6-0.7,1.1-1.1,1.6
			c-0.4,0.5-0.8,0.9-1.2,1.2c-0.4,0.3-0.9,0.6-1.4,0.8c-0.5,0.2-1,0.3-1.5,0.3c-0.6,0-1.1-0.1-1.5-0.3c-0.5-0.2-0.8-0.5-1.2-1
			c-0.3-0.4-0.6-1-0.8-1.6c-0.2-0.6-0.3-1.3-0.3-2.1c0-0.8,0.1-1.7,0.3-2.5c0.2-0.8,0.5-1.6,0.9-2.3c0.4-0.7,0.9-1.4,1.4-2
			s1.1-1.1,1.8-1.5c0.7-0.4,1.4-0.8,2.2-1c0.8-0.2,1.6-0.4,2.4-0.4c0.6,0,1.2,0,1.8,0.1c0.6,0.1,1.1,0.3,1.7,0.5L204.7,97.8z
			 M198.5,95.9c0.5,0,0.9-0.1,1.3-0.4c0.4-0.3,0.9-0.7,1.2-1.2c0.4-0.5,0.8-1.1,1.1-1.8c0.3-0.7,0.6-1.4,0.9-2.3l0.6-4.8
			c-0.2-0.2-0.4-0.2-0.6-0.2c-0.2,0-0.4,0-0.6,0c-0.6,0-1.1,0.1-1.6,0.3c-0.5,0.2-1,0.4-1.5,0.8c-0.5,0.3-0.9,0.7-1.3,1.2
			c-0.4,0.5-0.7,1-1,1.5c-0.3,0.5-0.5,1.1-0.6,1.7c-0.1,0.6-0.2,1.2-0.2,1.9C196.4,94.8,197.1,95.9,198.5,95.9z"/>
		<path d="M223.4,97.8c-0.3,0-0.6-0.1-0.7-0.3c-0.1-0.2-0.2-0.4-0.2-0.6l0.3-3c-0.4,0.6-0.7,1.2-1.2,1.7c-0.4,0.5-0.9,0.9-1.3,1.3
			c-0.5,0.4-0.9,0.6-1.4,0.8c-0.5,0.2-1,0.3-1.5,0.3c-1.2,0-2.2-0.4-2.8-1.3c-0.7-0.9-1-2.2-1-3.9c0-0.8,0.1-1.5,0.2-2.3
			c0.2-0.8,0.4-1.5,0.7-2.2c0.3-0.7,0.7-1.4,1.1-2c0.4-0.6,0.9-1.1,1.4-1.6c0.5-0.4,1.1-0.8,1.7-1c0.6-0.3,1.2-0.4,1.9-0.4
			c0.7,0,1.3,0.1,1.9,0.4c0.6,0.3,1.1,0.7,1.5,1.2l1-7.8h2.5l-2.6,20.7H223.4z M218.3,96c0.4,0,0.9-0.1,1.4-0.4s0.9-0.7,1.3-1.2
			s0.8-1.1,1.2-1.8c0.4-0.7,0.7-1.4,1-2.2l0.5-3.8c-0.4-0.5-0.8-0.8-1.3-1.1c-0.5-0.2-1-0.3-1.5-0.3c-0.7,0-1.4,0.2-2,0.7
			c-0.6,0.4-1.1,1-1.5,1.7c-0.4,0.7-0.7,1.5-1,2.3c-0.2,0.9-0.3,1.7-0.3,2.5c0,1.1,0.2,2,0.6,2.5C217,95.7,217.6,96,218.3,96z"/>
		<path d="M240,86.6c0,0.6-0.1,1.2-0.4,1.7c-0.3,0.5-0.7,1-1.4,1.4c-0.7,0.4-1.6,0.8-2.8,1.1c-1.2,0.3-2.7,0.6-4.6,0.7
			c0,0.1,0,0.2,0,0.3c0,0.1,0,0.2,0,0.3c0,1.3,0.3,2.2,0.8,2.9c0.5,0.7,1.4,1,2.5,1c0.4,0,0.8,0,1.2-0.1c0.4-0.1,0.7-0.2,0.9-0.3
			c0.3-0.1,0.5-0.3,0.7-0.4c0.2-0.2,0.4-0.3,0.6-0.4c0.2-0.1,0.3-0.3,0.5-0.3c0.1-0.1,0.3-0.1,0.4-0.1c0.2,0,0.3,0.1,0.5,0.2
			l0.6,0.8c-0.5,0.5-0.9,0.9-1.4,1.3c-0.5,0.4-0.9,0.6-1.4,0.9c-0.5,0.2-1,0.4-1.5,0.5c-0.5,0.1-1.1,0.2-1.7,0.2
			c-0.8,0-1.5-0.1-2.2-0.4c-0.6-0.3-1.2-0.7-1.6-1.2c-0.4-0.5-0.8-1.1-1-1.8c-0.2-0.7-0.4-1.5-0.4-2.4c0-0.7,0.1-1.5,0.2-2.2
			c0.2-0.7,0.4-1.4,0.7-2.1c0.3-0.7,0.7-1.3,1.1-1.8c0.4-0.6,0.9-1,1.5-1.5c0.5-0.4,1.2-0.7,1.8-1c0.7-0.2,1.4-0.4,2.1-0.4
			c0.7,0,1.3,0.1,1.9,0.3c0.5,0.2,1,0.5,1.3,0.8c0.3,0.3,0.6,0.7,0.8,1.1C239.9,85.9,240,86.3,240,86.6z M235.7,85.2
			c-0.6,0-1.1,0.1-1.6,0.4c-0.5,0.2-0.9,0.6-1.3,1c-0.4,0.4-0.7,0.9-1,1.5s-0.5,1.2-0.6,1.9c1.4-0.2,2.6-0.4,3.5-0.6
			c0.9-0.2,1.5-0.5,2-0.7c0.5-0.3,0.8-0.6,0.9-0.9c0.1-0.3,0.2-0.6,0.2-1c0-0.2,0-0.3-0.1-0.5c-0.1-0.2-0.2-0.3-0.4-0.5
			c-0.2-0.1-0.4-0.3-0.6-0.4C236.4,85.2,236,85.2,235.7,85.2z"/>
		<path d="M250.7,85.8c-0.1,0.1-0.1,0.2-0.2,0.2c-0.1,0.1-0.2,0.1-0.3,0.1c-0.1,0-0.3-0.1-0.4-0.2c-0.2-0.1-0.3-0.2-0.6-0.3
			c-0.2-0.1-0.5-0.2-0.8-0.4c-0.3-0.1-0.7-0.2-1.2-0.2c-0.4,0-0.8,0.1-1.2,0.2c-0.3,0.1-0.6,0.3-0.9,0.5c-0.3,0.2-0.4,0.4-0.6,0.7
			c-0.1,0.3-0.2,0.6-0.2,0.9c0,0.4,0.1,0.8,0.4,1.1c0.3,0.3,0.7,0.5,1.1,0.7c0.4,0.2,0.9,0.4,1.4,0.6c0.5,0.2,1,0.4,1.4,0.7
			c0.4,0.3,0.8,0.6,1.1,1c0.3,0.4,0.4,1,0.4,1.6c0,0.7-0.1,1.3-0.4,1.9c-0.3,0.6-0.6,1.1-1.1,1.6c-0.5,0.5-1.1,0.8-1.7,1.1
			c-0.7,0.3-1.4,0.4-2.3,0.4c-0.9,0-1.7-0.2-2.4-0.5c-0.7-0.3-1.3-0.7-1.7-1.2l0.6-1c0.1-0.1,0.2-0.2,0.3-0.3
			c0.1-0.1,0.2-0.1,0.4-0.1c0.1,0,0.3,0.1,0.4,0.2c0.1,0.1,0.3,0.3,0.6,0.4c0.2,0.2,0.5,0.3,0.8,0.4c0.3,0.1,0.8,0.2,1.3,0.2
			c0.5,0,0.9-0.1,1.2-0.2c0.4-0.1,0.7-0.3,0.9-0.6c0.3-0.2,0.5-0.5,0.6-0.8c0.1-0.3,0.2-0.6,0.2-1c0-0.5-0.1-0.9-0.4-1.1
			c-0.3-0.3-0.7-0.5-1.1-0.7c-0.4-0.2-0.9-0.4-1.4-0.5c-0.5-0.2-1-0.4-1.4-0.6s-0.8-0.6-1.1-1c-0.3-0.4-0.4-1-0.4-1.6
			c0-0.6,0.1-1.2,0.4-1.7c0.2-0.6,0.6-1.1,1-1.5c0.4-0.4,1-0.8,1.6-1c0.6-0.3,1.4-0.4,2.2-0.4c0.9,0,1.6,0.1,2.3,0.4
			c0.7,0.3,1.2,0.7,1.7,1.2L250.7,85.8z"/>
		<path d="M257,83.6l-1.7,14.2h-2.5l1.7-14.2H257z M257.9,79.1c0,0.2,0,0.5-0.1,0.7c-0.1,0.2-0.2,0.4-0.4,0.6
			c-0.2,0.2-0.3,0.3-0.6,0.4c-0.2,0.1-0.4,0.1-0.6,0.1c-0.2,0-0.4,0-0.6-0.1c-0.2-0.1-0.4-0.2-0.5-0.4s-0.3-0.4-0.4-0.6
			c-0.1-0.2-0.1-0.4-0.1-0.7c0-0.2,0-0.5,0.1-0.7c0.1-0.2,0.2-0.4,0.4-0.6c0.2-0.2,0.3-0.3,0.5-0.4c0.2-0.1,0.4-0.1,0.6-0.1
			c0.2,0,0.4,0,0.6,0.1c0.2,0.1,0.4,0.2,0.6,0.4c0.2,0.2,0.3,0.4,0.4,0.6C257.9,78.6,257.9,78.9,257.9,79.1z"/>
		<path d="M259.3,97.8l1.7-14.2h1.3c0.6,0,0.8,0.3,0.8,0.8l-0.2,2.8c0.8-1.3,1.6-2.2,2.6-2.8c1-0.6,1.9-1,3-1c1.1,0,1.9,0.4,2.5,1.1
			c0.6,0.7,0.9,1.8,0.9,3.1c0,0.2,0,0.4,0,0.6c0,0.2,0,0.4-0.1,0.6l-1.1,9.1h-2.5l1.1-9.1c0-0.2,0-0.4,0-0.5c0-0.2,0-0.3,0-0.5
			c0-0.8-0.1-1.3-0.4-1.7c-0.3-0.4-0.7-0.6-1.3-0.6c-0.4,0-0.9,0.1-1.4,0.4c-0.5,0.2-0.9,0.6-1.3,1c-0.4,0.4-0.8,1-1.2,1.6
			c-0.4,0.6-0.7,1.3-0.9,2.1l-0.8,7.2H259.3z"/>
		<path d="M278.3,85.6l-1.4,11.7l-0.6,2.9c-0.2,0.7-0.6,1.1-1.3,1.1h-1l1.9-15.6l-1.4-0.2c-0.2,0-0.3-0.1-0.4-0.2
			c-0.1-0.1-0.1-0.2-0.1-0.4l0.1-1.1h2l0.2-1.4c0.1-0.8,0.3-1.5,0.6-2.2c0.3-0.6,0.7-1.2,1.2-1.6c0.5-0.4,1-0.8,1.6-1
			c0.6-0.2,1.2-0.3,1.9-0.3c0.6,0,1.1,0.1,1.6,0.3l-0.2,1.3c0,0.1-0.1,0.2-0.2,0.2c-0.1,0-0.2,0-0.4,0c-0.1,0-0.2,0-0.3,0
			c-0.1,0-0.2,0-0.3,0c-0.4,0-0.8,0.1-1.1,0.2c-0.3,0.1-0.6,0.3-0.9,0.6c-0.3,0.3-0.5,0.6-0.7,1c-0.2,0.4-0.3,0.9-0.4,1.5l-0.2,1.3
			h3.6l-0.2,1.8H278.3z"/>
		<path d="M287.7,98c-0.8,0-1.5-0.1-2.1-0.4c-0.6-0.3-1.2-0.7-1.7-1.2s-0.8-1.1-1.1-1.9c-0.3-0.7-0.4-1.6-0.4-2.5
			c0-1.2,0.2-2.3,0.6-3.4c0.4-1.1,0.9-2,1.5-2.8c0.7-0.8,1.4-1.4,2.3-1.9c0.9-0.5,1.8-0.7,2.9-0.7c0.8,0,1.5,0.1,2.1,0.4
			c0.6,0.3,1.2,0.7,1.7,1.2c0.5,0.5,0.8,1.1,1.1,1.9c0.3,0.7,0.4,1.6,0.4,2.5c0,1.2-0.2,2.3-0.6,3.4c-0.4,1.1-0.9,2-1.5,2.8
			c-0.7,0.8-1.4,1.4-2.3,1.9C289.6,97.8,288.7,98,287.7,98z M287.9,96c0.7,0,1.3-0.2,1.9-0.6c0.6-0.4,1-0.9,1.4-1.5
			c0.4-0.6,0.7-1.3,0.9-2.2c0.2-0.8,0.3-1.7,0.3-2.6c0-1.3-0.3-2.3-0.8-3c-0.5-0.7-1.3-1-2.2-1c-0.7,0-1.3,0.2-1.9,0.6
			c-0.6,0.4-1,0.9-1.4,1.5c-0.4,0.6-0.7,1.3-0.9,2.2c-0.2,0.8-0.3,1.7-0.3,2.6c0,1.3,0.3,2.3,0.8,3C286.2,95.7,286.9,96,287.9,96z"
			/>
		<path d="M296.7,97.8l1.7-14.2h1.3c0.3,0,0.5,0.1,0.6,0.2c0.1,0.1,0.2,0.3,0.2,0.6c0,0,0,0.1,0,0.2c0,0.1,0,0.1,0,0.2
			c0,0.1,0,0.1,0,0.2c0,0.1,0,0.1,0,0.1l-0.2,2.6c0.6-1.3,1.3-2.3,2-3c0.8-0.7,1.5-1.1,2.4-1.1c0.4,0,0.8,0.1,1.2,0.3l-0.4,2.4
			c-0.4-0.2-0.9-0.3-1.3-0.3c-0.9,0-1.7,0.4-2.4,1.3c-0.7,0.9-1.3,2.2-1.8,4l-0.8,6.6H296.7z"/>
		<path d="M306.6,97.8l1.7-14.2h1.3c0.6,0,0.8,0.3,0.8,0.8l-0.2,2.5c0.7-1.2,1.5-2.1,2.3-2.7c0.8-0.6,1.7-0.9,2.6-0.9
			c1,0,1.7,0.3,2.1,1c0.5,0.7,0.7,1.6,0.7,2.8c0.7-1.3,1.5-2.3,2.4-2.9c0.9-0.6,1.8-0.9,2.8-0.9c1,0,1.8,0.3,2.4,1
			c0.5,0.7,0.8,1.7,0.8,3c0,0.2,0,0.4,0,0.7c0,0.2,0,0.5-0.1,0.7l-1.1,9.1h-2.5l1.1-9.1c0.1-0.5,0.1-0.9,0.1-1.3
			c0-0.7-0.1-1.2-0.4-1.6c-0.2-0.3-0.6-0.5-1.2-0.5c-0.4,0-0.8,0.1-1.2,0.3c-0.4,0.2-0.8,0.5-1.2,0.9c-0.4,0.4-0.7,0.9-1,1.4
			c-0.3,0.6-0.6,1.2-0.9,2l-0.9,7.7h-2.5l1.1-9.1c0-0.3,0.1-0.5,0.1-0.7c0-0.2,0-0.4,0-0.6c0-0.7-0.1-1.2-0.3-1.5
			c-0.2-0.3-0.6-0.5-1.2-0.5c-0.4,0-0.9,0.1-1.3,0.3c-0.4,0.2-0.8,0.6-1.2,1c-0.4,0.4-0.7,0.9-1,1.6c-0.3,0.6-0.6,1.3-0.9,2.1
			l-0.9,7.4H306.6z"/>
		<path d="M339.1,97.8h-1.3c-0.3,0-0.6-0.1-0.7-0.3c-0.1-0.2-0.2-0.4-0.2-0.6l0.3-2.9c-0.3,0.6-0.7,1.1-1.1,1.6
			c-0.4,0.5-0.8,0.9-1.2,1.2c-0.4,0.3-0.9,0.6-1.4,0.8c-0.5,0.2-1,0.3-1.5,0.3c-0.6,0-1.1-0.1-1.5-0.3c-0.5-0.2-0.8-0.5-1.2-1
			c-0.3-0.4-0.6-1-0.8-1.6c-0.2-0.6-0.3-1.3-0.3-2.1c0-0.8,0.1-1.7,0.3-2.5c0.2-0.8,0.5-1.6,0.9-2.3c0.4-0.7,0.9-1.4,1.4-2
			c0.5-0.6,1.1-1.1,1.8-1.5c0.7-0.4,1.4-0.8,2.2-1s1.6-0.4,2.4-0.4c0.6,0,1.2,0,1.8,0.1c0.6,0.1,1.1,0.3,1.7,0.5L339.1,97.8z
			 M332.9,95.9c0.5,0,0.9-0.1,1.3-0.4c0.4-0.3,0.9-0.7,1.3-1.2c0.4-0.5,0.8-1.1,1.1-1.8c0.3-0.7,0.6-1.4,0.9-2.3l0.6-4.8
			c-0.2-0.2-0.4-0.2-0.6-0.2s-0.4,0-0.6,0c-0.6,0-1.1,0.1-1.6,0.3c-0.5,0.2-1,0.4-1.5,0.8c-0.5,0.3-0.9,0.7-1.3,1.2
			c-0.4,0.5-0.7,1-1,1.5c-0.3,0.5-0.5,1.1-0.6,1.7c-0.1,0.6-0.2,1.2-0.2,1.9C330.8,94.8,331.5,95.9,332.9,95.9z"/>
		<path d="M351.9,96.6c-0.4,0.4-0.9,0.6-1.3,0.8c-0.4,0.2-0.9,0.4-1.4,0.4c-0.5,0.1-1,0.1-1.5,0.1c-0.8,0-1.6-0.1-2.2-0.4
			c-0.6-0.3-1.2-0.7-1.6-1.2c-0.4-0.5-0.7-1.1-1-1.8c-0.2-0.7-0.3-1.5-0.3-2.4c0-1.2,0.2-2.3,0.5-3.3c0.4-1.1,0.9-2,1.5-2.8
			c0.6-0.8,1.4-1.5,2.3-2c0.9-0.5,1.9-0.7,2.9-0.7c0.9,0,1.7,0.2,2.4,0.5c0.6,0.3,1.2,0.8,1.7,1.5l-0.8,0.9
			c-0.1,0.1-0.1,0.1-0.2,0.2c-0.1,0-0.2,0.1-0.3,0.1c-0.1,0-0.3-0.1-0.4-0.2c-0.1-0.1-0.3-0.2-0.5-0.4c-0.2-0.1-0.5-0.3-0.8-0.4
			c-0.3-0.1-0.7-0.2-1.2-0.2c-0.6,0-1.3,0.2-1.8,0.5c-0.6,0.4-1.1,0.8-1.5,1.4c-0.4,0.6-0.8,1.3-1,2.2c-0.2,0.8-0.4,1.7-0.4,2.7
			c0,0.6,0.1,1.1,0.2,1.6c0.1,0.5,0.3,0.9,0.6,1.2c0.3,0.3,0.6,0.6,1,0.8c0.4,0.2,0.8,0.3,1.3,0.3c0.4,0,0.8,0,1.1-0.1
			c0.3-0.1,0.6-0.2,0.9-0.3s0.5-0.3,0.7-0.4c0.2-0.2,0.4-0.3,0.5-0.4c0.2-0.1,0.3-0.2,0.4-0.3c0.1-0.1,0.3-0.1,0.4-0.1
			c0.2,0,0.3,0.1,0.5,0.2l0.6,0.8C352.8,95.8,352.3,96.2,351.9,96.6z"/>
		<path d="M359.5,83.6l-1.7,14.2h-2.5l1.7-14.2H359.5z M360.4,79.1c0,0.2,0,0.5-0.1,0.7c-0.1,0.2-0.2,0.4-0.4,0.6
			c-0.2,0.2-0.3,0.3-0.6,0.4c-0.2,0.1-0.4,0.1-0.6,0.1c-0.2,0-0.4,0-0.6-0.1c-0.2-0.1-0.4-0.2-0.5-0.4s-0.3-0.4-0.4-0.6
			c-0.1-0.2-0.1-0.4-0.1-0.7c0-0.2,0-0.5,0.1-0.7c0.1-0.2,0.2-0.4,0.4-0.6c0.2-0.2,0.3-0.3,0.5-0.4c0.2-0.1,0.4-0.1,0.6-0.1
			c0.2,0,0.4,0,0.6,0.1c0.2,0.1,0.4,0.2,0.6,0.4c0.2,0.2,0.3,0.4,0.4,0.6C360.4,78.6,360.4,78.9,360.4,79.1z"/>
		<path d="M366.9,98c-0.8,0-1.5-0.1-2.1-0.4c-0.6-0.3-1.2-0.7-1.7-1.2c-0.5-0.5-0.8-1.1-1.1-1.9c-0.3-0.7-0.4-1.6-0.4-2.5
			c0-1.2,0.2-2.3,0.6-3.4c0.4-1.1,0.9-2,1.5-2.8c0.7-0.8,1.4-1.4,2.3-1.9c0.9-0.5,1.8-0.7,2.9-0.7c0.8,0,1.5,0.1,2.1,0.4
			c0.6,0.3,1.2,0.7,1.7,1.2c0.5,0.5,0.8,1.1,1.1,1.9c0.3,0.7,0.4,1.6,0.4,2.5c0,1.2-0.2,2.3-0.6,3.4c-0.4,1.1-0.9,2-1.5,2.8
			c-0.7,0.8-1.4,1.4-2.3,1.9C368.8,97.8,367.9,98,366.9,98z M367.1,96c0.7,0,1.3-0.2,1.9-0.6c0.6-0.4,1-0.9,1.4-1.5
			c0.4-0.6,0.7-1.3,0.9-2.2c0.2-0.8,0.3-1.7,0.3-2.6c0-1.3-0.3-2.3-0.8-3c-0.5-0.7-1.3-1-2.2-1c-0.7,0-1.3,0.2-1.9,0.6
			c-0.6,0.4-1,0.9-1.4,1.5c-0.4,0.6-0.7,1.3-0.9,2.2c-0.2,0.8-0.3,1.7-0.3,2.6c0,1.3,0.3,2.3,0.8,3C365.4,95.7,366.1,96,367.1,96z
			 M373.3,77.4l-3.5,3.6c-0.1,0.1-0.3,0.2-0.4,0.3c-0.1,0.1-0.3,0.1-0.5,0.1h-1.4l2.3-3.4c0.1-0.2,0.3-0.4,0.4-0.4
			c0.2-0.1,0.4-0.1,0.7-0.1H373.3z"/>
		<path d="M375.9,97.8l1.7-14.2h1.3c0.6,0,0.8,0.3,0.8,0.8l-0.2,2.8c0.8-1.3,1.6-2.2,2.6-2.8c1-0.6,1.9-1,3-1c1.1,0,1.9,0.4,2.5,1.1
			c0.6,0.7,0.9,1.8,0.9,3.1c0,0.2,0,0.4,0,0.6c0,0.2,0,0.4-0.1,0.6l-1.1,9.1h-2.5l1.1-9.1c0-0.2,0-0.4,0-0.5c0-0.2,0-0.3,0-0.5
			c0-0.8-0.1-1.3-0.4-1.7c-0.3-0.4-0.7-0.6-1.3-0.6c-0.4,0-0.9,0.1-1.4,0.4c-0.5,0.2-0.9,0.6-1.3,1c-0.4,0.4-0.8,1-1.2,1.6
			c-0.4,0.6-0.7,1.3-0.9,2.1l-0.8,7.2H375.9z"/>
	</g>
	<g>
		<g>
			<polygon points="24.4,31.5 24.3,31.5 24.3,31.5 			"/>
		</g>
		<g>
			<path d="M44.7,37.8l0.8-5l-1.3-1.2h-5.6l0,0h0l-1,0L40,17.3l0-0.1h-5.9l-2.7,14.3h-7.2l0,0l-1.1,0l2.5-14.2h-5.7l-2.8,14.2H9.8
				L9,36.4l1.4,1.4l5.8,0l-1.8,9.7H7.7L7,52.4l1.4,1.4h5.2h0l-2.4,12.4l1,1.8l5.9,0L17.2,66l2.2-12.7l1.1,0.4l0,0h0.2h7.1l-2.1,12.7
				l0.9,1.5l5.9,0L31.6,66l2.2-12.5l0.1,0l1,0.4l0,0l0.1,0h0h7.5l0.8-5l-1.3-1.2h-5.6l-0.2,0l-1.2,0l1.8-10.3l1.1,0.4h0l0,0H44.7z
				 M28.8,47.5h-7.2l0,0h-1.2l1.8-10.2l1.1,0.4l0,0l7.2,0.1L28.8,47.5z"/>
		</g>
	</g>
	<g>
		<g>
			<polygon class="st10" points="23.3,37.7 22.2,37.3 20.4,47.5 21.6,47.5 			"/>
		</g>
		<g>
			<polygon class="st10" points="24.3,31.5 24.4,31.5 26.6,19.1 25.6,17.3 23.2,31.6 			"/>
		</g>
		<g>
			<polygon class="st10" points="19.4,53.3 17.2,66 18,68 20.5,53.7 			"/>
		</g>
	</g>
	<g>
		<g>
			<polygon class="st10" points="36.6,37.4 34.8,47.7 36,47.7 37.7,37.8 37.7,37.8 			"/>
		</g>
		<g>
			<polygon class="st10" points="38.6,31.5 38.8,31.5 41,19.1 40,17.3 37.6,31.6 			"/>
		</g>
		<g>
			<polygon class="st10" points="34.9,54 33.9,53.5 33.8,53.5 31.6,66 32.4,68 34.9,54 			"/>
		</g>
	</g>
</g>
<g>
	<g>
		<path class="st11" d="M261.7,71.2v-41h4.9c0.5,0,1,0.1,1.3,0.4c0.4,0.2,0.6,0.6,0.7,1.1l0.7,3.1c1.3-1.5,2.9-2.8,4.6-3.7
			c1.7-1,3.8-1.4,6.1-1.4c1.8,0,3.5,0.4,5,1.1c1.5,0.8,2.8,1.9,3.9,3.3c1.1,1.4,1.9,3.2,2.5,5.3c0.6,2.1,0.9,4.5,0.9,7.3
			c0,2.5-0.3,4.8-1,6.9c-0.7,2.1-1.6,4-2.9,5.5c-1.2,1.6-2.8,2.8-4.5,3.7c-1.8,0.9-3.7,1.3-5.9,1.3c-1.9,0-3.5-0.3-4.8-0.9
			c-1.3-0.6-2.5-1.4-3.5-2.4v10.4H261.7z M277.3,36c-1.7,0-3.1,0.4-4.3,1.1c-1.2,0.7-2.3,1.7-3.3,3v15c0.9,1.1,1.9,1.9,3,2.4
			c1.1,0.4,2.2,0.7,3.5,0.7c1.2,0,2.3-0.2,3.3-0.7c1-0.5,1.8-1.2,2.5-2.1c0.7-0.9,1.2-2.1,1.6-3.5c0.4-1.4,0.6-3.1,0.6-5
			c0-2-0.2-3.6-0.5-5c-0.3-1.4-0.8-2.5-1.4-3.3c-0.6-0.8-1.3-1.5-2.1-1.9C279.3,36.2,278.4,36,277.3,36z"/>
	</g>
	<g>
		<path class="st11" d="M324.7,63.6h-3.6c-0.8,0-1.4-0.1-1.8-0.3c-0.4-0.2-0.8-0.7-1-1.4l-0.7-2.4c-0.8,0.8-1.7,1.4-2.5,2
			c-0.8,0.6-1.7,1.1-2.5,1.4c-0.9,0.4-1.8,0.7-2.8,0.9c-1,0.2-2.1,0.3-3.3,0.3c-1.4,0-2.7-0.2-3.9-0.6c-1.2-0.4-2.2-1-3.1-1.7
			c-0.9-0.8-1.5-1.7-2-2.8c-0.5-1.1-0.7-2.5-0.7-4c0-1.3,0.3-2.5,1-3.7c0.7-1.2,1.8-2.3,3.3-3.3c1.5-1,3.6-1.8,6.2-2.5
			c2.6-0.7,5.7-1,9.5-1v-2c0-2.3-0.5-3.9-1.4-5c-0.9-1.1-2.3-1.6-4.1-1.6c-1.3,0-2.4,0.2-3.3,0.5c-0.9,0.3-1.6,0.6-2.3,1
			c-0.6,0.4-1.2,0.7-1.8,1c-0.5,0.3-1.1,0.5-1.8,0.5c-0.5,0-1-0.1-1.4-0.4c-0.4-0.3-0.7-0.6-0.9-1l-1.5-2.6
			c3.8-3.5,8.5-5.3,13.9-5.3c2,0,3.7,0.3,5.2,1c1.5,0.6,2.8,1.5,3.9,2.7c1.1,1.1,1.9,2.5,2.4,4.1c0.6,1.6,0.8,3.3,0.8,5.2V63.6z
			 M309.1,58.6c0.8,0,1.6-0.1,2.3-0.2c0.7-0.1,1.4-0.4,2-0.7c0.6-0.3,1.2-0.7,1.8-1.1s1.2-1,1.7-1.6v-5.6c-2.3,0-4.3,0.1-5.9,0.4
			c-1.6,0.3-2.8,0.7-3.8,1.1c-1,0.5-1.6,1-2,1.6c-0.4,0.6-0.6,1.3-0.6,2c0,1.4,0.4,2.4,1.3,3C306.6,58.3,307.7,58.6,309.1,58.6z"/>
	</g>
	<g>
		<path class="st11" d="M332.6,63.6V30.2h4.7c0.8,0,1.4,0.2,1.7,0.5c0.3,0.3,0.5,0.8,0.7,1.6l0.5,4c1.2-2.1,2.6-3.7,4.2-4.9
			c1.6-1.2,3.4-1.8,5.4-1.8c1.6,0,3,0.4,4.1,1.1l-1,6c-0.1,0.4-0.2,0.7-0.4,0.8c-0.2,0.2-0.5,0.2-0.9,0.2c-0.3,0-0.8-0.1-1.3-0.2
			c-0.6-0.2-1.3-0.2-2.2-0.2c-1.7,0-3.1,0.5-4.3,1.4c-1.2,0.9-2.2,2.3-3,4.1v20.8H332.6z"/>
	</g>
	<g>
		<path class="st11" d="M373.5,29.7c2.5,0,4.8,0.4,6.8,1.2c2,0.8,3.8,1.9,5.2,3.4c1.4,1.5,2.5,3.3,3.3,5.4c0.8,2.1,1.2,4.5,1.2,7.1
			c0,2.6-0.4,5-1.2,7.2c-0.8,2.1-1.9,3.9-3.3,5.4c-1.4,1.5-3.2,2.6-5.2,3.5c-2,0.8-4.3,1.2-6.8,1.2c-2.5,0-4.8-0.4-6.8-1.2
			c-2-0.8-3.8-2-5.2-3.5c-1.4-1.5-2.6-3.3-3.4-5.4c-0.8-2.1-1.2-4.5-1.2-7.2c0-2.6,0.4-5,1.2-7.1c0.8-2.1,1.9-3.9,3.4-5.4
			c1.4-1.5,3.2-2.6,5.2-3.4C368.7,30.1,371,29.7,373.5,29.7z M373.5,57.9c2.8,0,4.8-0.9,6.2-2.8c1.3-1.9,2-4.6,2-8.2
			c0-3.6-0.7-6.3-2-8.2c-1.3-1.9-3.4-2.8-6.2-2.8c-2.8,0-4.9,0.9-6.3,2.8s-2,4.6-2,8.2c0,3.6,0.7,6.3,2,8.2
			C368.6,57,370.6,57.9,373.5,57.9z"/>
	</g>
</g>
</svg>
