<?xml version="1.0" encoding="utf-8"?>
<!-- Generator: Adobe Illustrator 21.1.0, SVG Export Plug-In . SVG Version: 6.00 Build 0)  -->
<svg version="1.1" id="Layer_1" xmlns="http://www.w3.org/2000/svg" xmlns:xlink="http://www.w3.org/1999/xlink" x="0px" y="0px"
	 viewBox="0 0 1200 438.8" style="enable-background:new 0 0 1200 438.8;" xml:space="preserve">
<style type="text/css">
	.st0{display:none;}
	.st1{display:inline;fill:#FFFDEF;}
	.st2{display:inline;fill:#95C11F;}
	.st3{display:inline;fill:url(#SVGID_1_);}
	.st4{display:inline;}
	.st5{filter:url(#Adobe_OpacityMaskFilter);}
	.st6{mask:url(#SVGID_2_);}
	.st7{enable-background:new    ;}
	.st8{fill:#212121;}
	.st9{fill:#29BBE2;}
</style>
<g id="Livello_3" class="st0">
	<rect x="-810.5" y="-651.1" class="st1" width="500" height="500"/>
</g>
<g id="Livello_4" class="st0">
	<path class="st2" d="M-475.9-468.6c0,4.8-0.4,9.5-1.1,14c-2.5,15.5-9,29.6-18.5,41.2c-3.7,4.6-7.9,8.8-12.5,12.5
		c-11.5,9.4-25.5,15.9-40.8,18.5c-4.7,0.8-9.5,1.2-14.4,1.2c-48.2,0-87.3-39.1-87.3-87.3c0-48.2,39.1-87.3,87.3-87.3
		C-515-555.9-475.9-516.8-475.9-468.6z"/>
	
		<linearGradient id="SVGID_1_" gradientUnits="userSpaceOnUse" x1="-563.3929" y1="-464.7409" x2="-501.6379" y2="-526.4958" gradientTransform="matrix(1 0 0 -1 0 -933.7318)">
		<stop  offset="0" style="stop-color:#F9B233"/>
		<stop  offset="1" style="stop-color:#FFFFFF"/>
	</linearGradient>
	<path class="st3" d="M-477-454.5c-2.5,15.5-9,29.6-18.5,41.2l-12.5,12.5c-11.5,9.4-25.5,15.9-40.8,18.5l-50.6-50.6l72-72
		L-477-454.5z"/>
</g>
<g id="Livello_5" class="st0">
	<g class="st4">
		<defs>
			<filter id="Adobe_OpacityMaskFilter" filterUnits="userSpaceOnUse" x="-602.9" y="-396.5" width="79.5" height="17.3">
				<feColorMatrix  type="matrix" values="1 0 0 0 0  0 1 0 0 0  0 0 1 0 0  0 0 0 1 0"/>
			</filter>
		</defs>
		<mask maskUnits="userSpaceOnUse" x="-602.9" y="-396.5" width="79.5" height="17.3" id="SVGID_2_">
			<g class="st5">
				
					<image style="overflow:visible;enable-background:new    ;" width="354" height="96" xlink:href="A4E97F425E9DD19.jpeg"  transform="matrix(0.2359 0 0 0.2225 -604.9237 -398.4518)">
				</image>
			</g>
		</mask>
		<g class="st6">
			<ellipse cx="-563.2" cy="-387.8" rx="39.7" ry="8.7"/>
		</g>
	</g>
</g>
<g id="Livello_2" class="st0">
	
		<text transform="matrix(1 0 0 1 -738.4556 -327.7857)" style="display:inline;fill:#212121; font-family:'Signika-Semibold'; font-size:100px;">emerald</text>
</g>
<g>
	<g>
		<g>
			<polygon class="st9" points="63.6,191.4 60.2,190.1 54.8,221.2 58.4,221.2 			"/>
		</g>
		<g>
			<polygon class="st9" points="66.6,172.5 66.9,172.5 73.6,134.4 70.7,129.1 63.2,172.5 			"/>
		</g>
		<g>
			<polygon class="st9" points="51.8,238.9 45.1,277.7 47.5,283.6 55.1,240.2 			"/>
		</g>
	</g>
	<g>
		<g>
			<polygon class="st9" points="104.2,190.2 98.7,221.8 102.3,221.9 107.6,191.6 107.5,191.6 			"/>
		</g>
		<g>
			<polygon class="st9" points="110.2,172.5 110.9,172.5 117.6,134.4 114.7,129.1 107.3,172.5 			"/>
		</g>
		<g>
			<polygon class="st9" points="98.9,241 95.8,239.6 95.7,239.5 89.1,277.7 91.5,283.6 99,241 			"/>
		</g>
	</g>
	<g>
		<g>
			<g>
				<path d="M189,272c-8,0-14.1-2.2-18.3-6.7c-4.3-4.4-6.4-10.8-6.4-19.2v-61.6h-12.1c-1.1,0-2-0.3-2.7-0.9
					c-0.7-0.6-1.1-1.6-1.1-2.9v-7.1l16.5-2.1l4.1-31.1c0.1-1,0.6-1.8,1.3-2.4c0.7-0.6,1.7-0.9,2.8-0.9h8.9v34.7h28.8v12.8H182V245
					c0,4.2,1,7.4,3.1,9.4c2.1,2.1,4.7,3.1,8,3.1c1.9,0,3.5-0.2,4.8-0.7c1.4-0.5,2.5-1,3.5-1.6s1.8-1.1,2.5-1.6
					c0.7-0.5,1.3-0.7,1.8-0.7c0.9,0,1.8,0.6,2.5,1.7l5.2,8.4c-3,2.8-6.7,5.1-11,6.7C198,271.2,193.6,272,189,272z"/>
			</g>
			<g>
				<path d="M256.3,138.2c0,1.7-0.3,3.3-1,4.8c-0.7,1.5-1.6,2.8-2.8,4c-1.2,1.2-2.5,2.1-4,2.7c-1.5,0.7-3.1,1-4.9,1
					c-1.7,0-3.3-0.3-4.8-1c-1.5-0.7-2.8-1.6-4-2.7c-1.2-1.2-2.1-2.5-2.7-4c-0.7-1.5-1-3.1-1-4.8c0-1.7,0.3-3.4,1-4.9
					c0.7-1.6,1.6-2.9,2.7-4.1c1.2-1.2,2.5-2.1,4-2.7c1.5-0.7,3.1-1,4.8-1c1.7,0,3.3,0.3,4.9,1c1.5,0.7,2.9,1.6,4,2.7
					c1.2,1.2,2.1,2.5,2.8,4.1C256,134.8,256.3,136.4,256.3,138.2z M252.3,169.8v100.7h-17.7V169.8H252.3z"/>
			</g>
			<g>
				<path d="M283.5,270.5V169.8h10.1c1.9,0,3.2,0.4,4,1.1c0.7,0.7,1.2,2,1.5,3.8l1.2,15.7c3.4-7,7.7-12.5,12.8-16.5
					c5.1-3.9,11-5.9,17.8-5.9c2.8,0,5.3,0.3,7.6,0.9c2.3,0.6,4.3,1.5,6.3,2.6l-2.3,13.2c-0.5,1.7-1.5,2.5-3.1,2.5
					c-0.9,0-2.4-0.3-4.3-0.9c-1.9-0.6-4.6-0.9-8.1-0.9c-6.2,0-11.3,1.8-15.5,5.4c-4.1,3.6-7.6,8.8-10.4,15.6v64.1H283.5z"/>
			</g>
			<g>
				<path d="M433.8,270.5H426c-1.7,0-3.1-0.3-4.2-0.8c-1.1-0.5-1.8-1.7-2.1-3.4l-2-9.3c-2.7,2.4-5.2,4.5-7.8,6.4
					c-2.5,1.9-5.2,3.5-8,4.8c-2.8,1.3-5.7,2.3-8.9,2.9c-3.1,0.7-6.6,1-10.5,1c-3.9,0-7.6-0.5-11-1.6c-3.4-1.1-6.4-2.7-8.9-4.9
					c-2.5-2.2-4.5-5-6-8.3c-1.5-3.4-2.2-7.3-2.2-11.9c0-4,1.1-7.8,3.3-11.5c2.2-3.7,5.7-7,10.6-9.8c4.9-2.9,11.2-5.2,19.1-7
					c7.9-1.8,17.5-2.7,28.9-2.7v-7.9c0-7.9-1.7-13.8-5-17.9c-3.3-4-8.3-6.1-14.9-6.1c-4.3,0-7.9,0.5-10.9,1.6
					c-2.9,1.1-5.5,2.3-7.7,3.7c-2.2,1.4-4,2.6-5.6,3.7c-1.6,1.1-3.1,1.6-4.6,1.6c-1.2,0-2.2-0.3-3.1-0.9c-0.9-0.6-1.6-1.4-2.1-2.3
					l-3.2-5.7c5.6-5.4,11.6-9.4,18-12c6.4-2.6,13.6-4,21.4-4c5.6,0,10.6,0.9,15,2.8c4.4,1.9,8.1,4.4,11,7.8c3,3.3,5.2,7.3,6.8,12
					c1.5,4.7,2.3,9.9,2.3,15.5V270.5z M387.9,259.6c3.1,0,6-0.3,8.5-0.9c2.6-0.6,5-1.5,7.3-2.7c2.3-1.2,4.5-2.6,6.6-4.2
					c2.1-1.7,4.1-3.5,6.1-5.7v-20.8c-8.2,0-15.1,0.5-20.8,1.5c-5.7,1-10.3,2.4-13.9,4c-3.6,1.7-6.2,3.6-7.8,5.9
					c-1.6,2.3-2.4,4.8-2.4,7.6c0,2.7,0.4,5,1.3,6.9c0.9,1.9,2,3.5,3.5,4.7c1.5,1.2,3.2,2.1,5.2,2.7
					C383.4,259.3,385.6,259.6,387.9,259.6z"/>
			</g>
			<g>
				<path d="M460.7,270.5V169.8h10.5c2.5,0,4.1,1.2,4.8,3.7l1.4,10.9c4.4-4.8,9.3-8.7,14.7-11.7c5.4-3,11.6-4.5,18.7-4.5
					c5.5,0,10.4,0.9,14.6,2.7c4.2,1.8,7.7,4.4,10.5,7.8c2.8,3.3,5,7.4,6.4,12.1c1.5,4.7,2.2,9.9,2.2,15.6v64.1h-17.7v-64.1
					c0-7.6-1.7-13.5-5.2-17.7c-3.5-4.2-8.8-6.3-16-6.3c-5.2,0-10.1,1.3-14.7,3.8c-4.5,2.5-8.7,5.9-12.6,10.2v74.1H460.7z"/>
			</g>
			<g>
				<path d="M642.1,270.5c-2.5,0-4.1-1.2-4.8-3.7l-1.6-12.2c-4.3,5.2-9.2,9.4-14.8,12.6c-5.5,3.1-11.9,4.7-19,4.7
					c-5.8,0-11-1.1-15.7-3.3c-4.7-2.2-8.7-5.5-12-9.8c-3.3-4.3-5.9-9.7-7.7-16.1c-1.8-6.4-2.7-13.8-2.7-22.2c0-7.4,1-14.3,3-20.7
					c2-6.4,4.9-11.9,8.6-16.6c3.7-4.7,8.3-8.4,13.7-11.1c5.4-2.7,11.5-4,18.3-4c6.2,0,11.4,1,15.8,3.1c4.4,2.1,8.3,5,11.7,8.8V124
					h17.7v146.4H642.1z M607.8,257.5c5.8,0,10.8-1.3,15.2-4c4.3-2.6,8.3-6.4,12-11.2v-48.7c-3.2-4.4-6.8-7.4-10.7-9.2
					c-3.9-1.8-8.2-2.6-12.9-2.6c-9.4,0-16.6,3.3-21.7,10c-5,6.7-7.6,16.2-7.6,28.6c0,6.6,0.6,12.2,1.7,16.8c1.1,4.7,2.8,8.5,5,11.5
					c2.2,3,4.9,5.2,8.1,6.6C600,256.8,603.7,257.5,607.8,257.5z"/>
			</g>
			<g>
				<path d="M723.1,168.2c7.4,0,14,1.2,19.9,3.7c5.9,2.5,11,5.9,15.1,10.4c4.1,4.5,7.3,10,9.5,16.4c2.2,6.4,3.3,13.5,3.3,21.4
					c0,8-1.1,15.1-3.3,21.5c-2.2,6.4-5.4,11.8-9.5,16.3c-4.1,4.5-9.2,8-15.1,10.4c-5.9,2.4-12.6,3.6-19.9,3.6
					c-7.4,0-14-1.2-19.9-3.6c-5.9-2.4-11-5.9-15.2-10.4c-4.2-4.5-7.4-9.9-9.6-16.3c-2.3-6.4-3.4-13.5-3.4-21.5
					c0-7.9,1.1-15,3.4-21.4c2.3-6.4,5.5-11.8,9.6-16.4c4.2-4.5,9.2-8,15.2-10.4C709.1,169.4,715.7,168.2,723.1,168.2z M723.1,258
					c9.9,0,17.4-3.3,22.3-10c4.9-6.7,7.4-16,7.4-27.9c0-12-2.5-21.3-7.4-28c-4.9-6.7-12.3-10-22.3-10c-5,0-9.4,0.9-13.1,2.6
					c-3.7,1.7-6.8,4.2-9.3,7.5c-2.5,3.2-4.3,7.2-5.6,12c-1.2,4.7-1.8,10.1-1.8,16.1c0,6,0.6,11.3,1.8,16c1.2,4.7,3.1,8.7,5.6,11.9
					c2.5,3.2,5.6,5.7,9.3,7.4C713.7,257.2,718,258,723.1,258z"/>
			</g>
		</g>
	</g>
	<g>
		<path d="M188.2,343.3c0,1.4-0.2,2.7-0.5,3.9c-0.3,1.1-0.7,2.2-1.2,3.2s-1,1.9-1.6,2.7c-0.6,0.9-1.1,1.7-1.6,2.6s-0.9,1.7-1.2,2.6
			c-0.3,0.9-0.5,1.9-0.5,2.9c0,1.2,0.3,2.3,0.9,3.3c0.6,1,1.2,2,1.9,3c0.7,1,1.3,2.2,1.9,3.4c0.6,1.2,0.9,2.7,0.9,4.3
			c0,2-0.5,4-1.4,5.8c-0.9,1.8-2.3,3.4-4,4.8c-1.7,1.4-3.9,2.5-6.4,3.3c-2.5,0.8-5.3,1.2-8.4,1.2c-2.5,0-4.8-0.3-6.8-0.8
			c-2-0.5-3.8-1.2-5.2-2.2c-1.4-0.9-2.6-2.1-3.3-3.4c-0.8-1.3-1.2-2.8-1.2-4.4c0-2.3,0.6-4.2,1.8-5.8c1.2-1.6,2.7-3,4.6-4
			c1.9-1.1,4.1-1.8,6.5-2.3c2.4-0.5,4.9-0.7,7.5-0.7c1,0,2.1,0,3.1,0.1c1,0.1,2,0.2,3,0.3c-0.3-0.5-0.5-1.1-0.6-1.7
			c-0.2-0.6-0.2-1.2-0.2-1.9c0-0.9,0.1-1.8,0.4-2.7c0.3-0.9,0.7-2,1.4-3.2c-1.1,0.7-2.3,1.3-3.6,1.7c-1.3,0.4-2.9,0.6-4.6,0.6
			c-1.7,0-3.2-0.3-4.7-0.8c-1.4-0.5-2.7-1.3-3.8-2.4c-1.1-1.1-1.9-2.4-2.6-4c-0.6-1.6-0.9-3.4-0.9-5.6c0-2.1,0.4-4.1,1.1-6.1
			c0.8-2,1.9-3.8,3.3-5.3c1.5-1.6,3.3-2.8,5.4-3.8c2.1-0.9,4.6-1.4,7.4-1.4c3.1,0,5.9,0.7,8.2,2.2h11.8l-0.3,2.5
			c-0.1,0.5-0.2,0.9-0.5,1.3c-0.3,0.4-0.7,0.6-1.2,0.7l-5.4,0.9c0.3,0.7,0.5,1.5,0.6,2.3C188.2,341.5,188.2,342.4,188.2,343.3z
			 M180.3,375.8c0-0.7-0.1-1.4-0.2-2.1c-0.1-0.6-0.3-1.3-0.6-1.8c-1.5-0.3-3-0.4-4.4-0.6c-1.4-0.1-2.6-0.2-3.8-0.2
			c-2.3,0-4.4,0.2-6.1,0.6c-1.7,0.4-3.1,1-4.2,1.7c-1.1,0.7-1.9,1.5-2.5,2.4s-0.8,1.8-0.8,2.8c0,2.1,0.9,3.6,2.6,4.7
			c1.7,1.1,4.2,1.6,7.4,1.6c1.9,0,3.6-0.2,5.2-0.7c1.6-0.5,2.9-1.2,4-2c1.1-0.8,2-1.8,2.6-2.9C180,378.2,180.3,377,180.3,375.8z
			 M171.7,355.1c1.5,0,2.9-0.3,4.1-1c1.2-0.7,2.2-1.6,3-2.7s1.4-2.3,1.9-3.7c0.4-1.4,0.6-2.8,0.6-4.2c0-2.5-0.6-4.4-1.9-5.7
			c-1.3-1.3-3-1.9-5.3-1.9c-1.5,0-2.9,0.3-4.1,0.9c-1.2,0.6-2.2,1.5-3,2.5c-0.8,1.1-1.4,2.3-1.8,3.6c-0.4,1.3-0.6,2.7-0.6,4.2
			c0,2.6,0.6,4.5,1.9,5.9C167.7,354.4,169.5,355.1,171.7,355.1z"/>
		<path d="M208.3,331.3l-3.3,27.6c-0.1,0.6-0.1,1.1-0.1,1.6c0,0.5-0.1,1-0.1,1.5c0,2.3,0.4,4.1,1.3,5.2c0.9,1.1,2.3,1.7,4.1,1.7
			c1.3,0,2.7-0.4,4.1-1.1c1.4-0.7,2.7-1.7,4-3c1.3-1.3,2.5-2.9,3.6-4.8c1.1-1.9,2.1-3.9,2.9-6.2l2.7-22.6h7.6l-5.2,43.5h-3.8
			c-0.9,0-1.6-0.2-2.1-0.6s-0.7-1-0.7-1.8c0,0,0-0.3,0-0.8c0-0.5,0.1-1,0.1-1.6c0-0.6,0.1-1.1,0.1-1.6c0-0.5,0.1-0.7,0.1-0.8
			l0.3-3.5c-2.3,3.7-4.9,6.5-7.8,8.4c-2.9,1.9-5.8,2.9-8.8,2.9c-3.2,0-5.7-1.1-7.5-3.3c-1.8-2.2-2.7-5.4-2.7-9.5c0-0.6,0-1.2,0-1.8
			c0-0.6,0.1-1.2,0.2-1.9l3.3-27.6H208.3z"/>
		<path d="M254.9,331.3l-5.2,43.5h-7.5l5.2-43.5H254.9z M265.1,312.7l-10.6,11c-0.4,0.4-0.8,0.7-1.2,0.9c-0.4,0.2-0.9,0.3-1.5,0.3
			h-4.4l7.1-10.4c0.4-0.6,0.8-1.1,1.3-1.4c0.5-0.3,1.2-0.4,2.1-0.4H265.1z"/>
		<path d="M294,374.7h-3.9c-1,0-1.7-0.3-2-0.8c-0.4-0.5-0.5-1.1-0.5-1.9l0.8-8.7c-1,1.8-2.1,3.5-3.3,4.9c-1.2,1.5-2.4,2.7-3.8,3.8
			c-1.3,1-2.7,1.8-4.2,2.4c-1.5,0.6-3,0.9-4.5,0.9c-1.7,0-3.3-0.3-4.7-1c-1.4-0.7-2.6-1.7-3.6-3c-1-1.3-1.8-2.9-2.3-4.8
			c-0.5-1.9-0.8-4.1-0.8-6.5c0-2.6,0.3-5.1,1-7.5c0.6-2.4,1.6-4.8,2.7-6.9c1.2-2.2,2.6-4.2,4.3-6c1.7-1.8,3.5-3.4,5.6-4.7
			c2-1.3,4.2-2.4,6.6-3.1c2.3-0.7,4.8-1.1,7.4-1.1c1.9,0,3.7,0.2,5.4,0.5c1.8,0.3,3.5,0.8,5.2,1.6L294,374.7z M275.3,369
			c1.4,0,2.8-0.4,4.1-1.3c1.3-0.9,2.6-2,3.8-3.6c1.2-1.5,2.3-3.3,3.4-5.4c1-2.1,2-4.4,2.8-6.9l1.8-14.7c-0.6-0.5-1.3-0.8-1.9-0.8
			c-0.6,0-1.2,0-1.8,0c-1.7,0-3.4,0.3-5,0.8c-1.6,0.6-3.1,1.3-4.5,2.3c-1.4,1-2.7,2.2-3.8,3.6c-1.1,1.4-2.1,2.9-2.9,4.6
			c-0.8,1.7-1.5,3.4-1.9,5.3c-0.5,1.9-0.7,3.8-0.7,5.8C268.7,365.5,270.9,369,275.3,369z"/>
		<path d="M349.8,371c-1.3,1.1-2.7,2-4,2.6c-1.3,0.6-2.7,1.1-4.2,1.4c-1.4,0.3-3,0.4-4.7,0.4c-2.5,0-4.7-0.4-6.7-1.3
			c-1.9-0.9-3.5-2.1-4.8-3.6c-1.3-1.6-2.3-3.4-3-5.6c-0.7-2.2-1-4.6-1-7.2c0-3.5,0.6-6.9,1.7-10.1c1.1-3.2,2.6-6.1,4.6-8.6
			c2-2.5,4.3-4.5,7-6c2.7-1.5,5.7-2.2,9-2.2c2.9,0,5.3,0.5,7.2,1.5c1.9,1,3.6,2.5,5.1,4.4l-2.4,2.9c-0.2,0.2-0.4,0.4-0.6,0.6
			c-0.3,0.1-0.5,0.2-0.9,0.2c-0.4,0-0.8-0.2-1.2-0.5c-0.4-0.4-0.9-0.8-1.5-1.2c-0.6-0.4-1.4-0.8-2.3-1.2c-0.9-0.4-2.1-0.5-3.6-0.5
			c-2,0-3.8,0.5-5.6,1.6c-1.8,1.1-3.3,2.5-4.6,4.4c-1.3,1.9-2.4,4.1-3.1,6.6c-0.8,2.5-1.1,5.3-1.1,8.2c0,1.8,0.2,3.4,0.6,4.8
			c0.4,1.4,1,2.7,1.8,3.7c0.8,1,1.8,1.8,2.9,2.4c1.2,0.6,2.5,0.8,4.1,0.8c1.3,0,2.4-0.1,3.4-0.4c1-0.3,1.9-0.6,2.7-1
			c0.8-0.4,1.5-0.8,2-1.3c0.6-0.5,1.1-0.9,1.6-1.3c0.5-0.4,0.9-0.7,1.3-1c0.4-0.3,0.8-0.4,1.2-0.4c0.6,0,1.1,0.2,1.5,0.7l1.9,2.3
			C352.5,368.5,351.1,369.9,349.8,371z"/>
		<path d="M374.6,375.3c-2.4,0-4.5-0.4-6.5-1.2c-2-0.8-3.7-2-5.1-3.5s-2.5-3.4-3.3-5.7c-0.8-2.2-1.2-4.8-1.2-7.6
			c0-3.7,0.6-7.1,1.7-10.3c1.1-3.2,2.7-6.1,4.7-8.5c2-2.4,4.3-4.3,7-5.7c2.7-1.4,5.6-2.1,8.8-2.1c2.4,0,4.5,0.4,6.5,1.2
			c2,0.8,3.7,2,5.1,3.5c1.4,1.5,2.5,3.4,3.3,5.7c0.8,2.2,1.2,4.8,1.2,7.6c0,3.6-0.6,7.1-1.7,10.3c-1.1,3.2-2.7,6.1-4.7,8.5
			c-2,2.4-4.3,4.4-7.1,5.8C380.6,374.6,377.7,375.3,374.6,375.3z M375.3,369.4c2.1,0,4-0.6,5.7-1.7s3.2-2.7,4.4-4.6
			c1.2-1.9,2.1-4.1,2.8-6.6c0.7-2.5,1-5.1,1-7.8c0-4-0.8-7-2.4-9.1c-1.6-2-3.8-3-6.8-3c-2.1,0-4,0.6-5.7,1.7
			c-1.7,1.1-3.2,2.6-4.4,4.5c-1.2,1.9-2.1,4.1-2.8,6.6c-0.7,2.5-1,5.1-1,7.8c0,4,0.8,7,2.3,9.1C370,368.3,372.3,369.4,375.3,369.4z"
			/>
		<path d="M402.2,374.7l5.2-43.5h3.8c1.7,0,2.6,0.9,2.6,2.6l-0.6,8.4c2.3-3.8,4.9-6.7,7.8-8.7c2.9-1.9,5.9-2.9,9-2.9
			c3.2,0,5.7,1.1,7.5,3.3c1.8,2.2,2.7,5.3,2.7,9.5c0,0.6,0,1.2,0,1.8c0,0.6-0.1,1.2-0.2,1.9l-3.3,27.7h-7.6l3.3-27.7
			c0.1-0.6,0.1-1.1,0.1-1.7c0-0.5,0.1-1,0.1-1.5c0-2.3-0.4-4.1-1.3-5.2c-0.9-1.1-2.2-1.7-4.1-1.7c-1.4,0-2.8,0.4-4.2,1.1
			c-1.4,0.7-2.8,1.8-4.1,3.2c-1.3,1.4-2.5,3-3.7,4.9c-1.1,1.9-2.1,4.1-2.9,6.5l-2.5,22.1H402.2z"/>
		<path d="M451.1,366.5c0-0.2,0-0.4,0-0.7c0-0.3,0-0.7,0.1-1.2c0-0.5,0.1-1.2,0.2-2c0.1-0.8,0.2-1.9,0.4-3.3l2.7-21.7h-4.8
			c-0.4,0-0.7-0.1-0.9-0.3c-0.2-0.2-0.4-0.5-0.4-1c0-0.1,0-0.3,0-0.5c0-0.3,0.1-0.6,0.1-0.9s0.1-0.7,0.1-1c0-0.3,0.1-0.7,0.1-1
			l6.7-0.9l3.2-13.4c0.1-0.4,0.3-0.8,0.6-1.1c0.3-0.3,0.7-0.4,1.2-0.4h4l-1.9,15H474l-0.6,5.5h-11.5l-2.6,21.4
			c-0.1,1.2-0.2,2.1-0.3,2.8c-0.1,0.7-0.1,1.3-0.2,1.7c0,0.4-0.1,0.7-0.1,0.9c0,0.2,0,0.3,0,0.4c0,1.5,0.3,2.5,1,3.2
			s1.6,1.1,2.8,1.1c0.7,0,1.4-0.1,2-0.3c0.6-0.2,1.1-0.5,1.5-0.7c0.4-0.3,0.8-0.5,1.1-0.7c0.3-0.2,0.5-0.3,0.8-0.3
			c0.2,0,0.4,0.1,0.5,0.2c0.1,0.1,0.3,0.3,0.4,0.6l1.6,3.6c-1.4,1.2-3,2.2-4.7,2.9c-1.8,0.7-3.6,1-5.4,1c-2.8,0-5-0.8-6.6-2.3
			C452,371.6,451.2,369.4,451.1,366.5z"/>
		<path d="M476.7,374.7l5.2-43.5h3.8c0.8,0,1.4,0.2,1.9,0.6c0.5,0.4,0.7,0.9,0.7,1.7c0,0.1,0,0.3,0,0.5c0,0.2,0,0.4,0,0.7
			c0,0.2,0,0.4,0,0.6c0,0.2,0,0.3,0,0.3l-0.6,7.9c1.9-4,3.9-7.1,6.2-9.3c2.3-2.2,4.7-3.3,7.3-3.3c1.2,0,2.4,0.3,3.6,0.8l-1.4,7.3
			c-1.3-0.5-2.6-0.8-3.9-0.8c-2.8,0-5.2,1.4-7.4,4.1c-2.2,2.7-4,6.8-5.4,12.3l-2.4,20.2H476.7z"/>
		<path d="M537.1,374.7h-3.9c-1,0-1.7-0.3-2-0.8c-0.4-0.5-0.5-1.1-0.5-1.9l0.8-8.7c-1,1.8-2.1,3.5-3.3,4.9c-1.2,1.5-2.4,2.7-3.8,3.8
			c-1.3,1-2.7,1.8-4.2,2.4c-1.5,0.6-3,0.9-4.5,0.9c-1.7,0-3.3-0.3-4.7-1c-1.4-0.7-2.6-1.7-3.6-3c-1-1.3-1.8-2.9-2.3-4.8
			c-0.5-1.9-0.8-4.1-0.8-6.5c0-2.6,0.3-5.1,1-7.5c0.6-2.4,1.6-4.8,2.7-6.9c1.2-2.2,2.6-4.2,4.3-6c1.7-1.8,3.5-3.4,5.6-4.7
			c2-1.3,4.2-2.4,6.6-3.1c2.3-0.7,4.8-1.1,7.4-1.1c1.9,0,3.7,0.2,5.4,0.5c1.8,0.3,3.5,0.8,5.2,1.6L537.1,374.7z M518.4,369
			c1.4,0,2.8-0.4,4.1-1.3c1.3-0.9,2.6-2,3.8-3.6c1.2-1.5,2.3-3.3,3.4-5.4c1-2.1,2-4.4,2.8-6.9l1.8-14.7c-0.6-0.5-1.3-0.8-1.9-0.8
			c-0.6,0-1.2,0-1.8,0c-1.7,0-3.4,0.3-5,0.8c-1.6,0.6-3.1,1.3-4.5,2.3c-1.4,1-2.7,2.2-3.8,3.6c-1.1,1.4-2.1,2.9-2.9,4.6
			c-0.8,1.7-1.5,3.4-1.9,5.3c-0.5,1.9-0.7,3.8-0.7,5.8C511.8,365.5,514,369,518.4,369z"/>
		<path d="M565.7,374.7l7.7-63.2h7.5l-7.7,63.2H565.7z"/>
		<path d="M617.3,374.7h-3.9c-1,0-1.7-0.3-2-0.8c-0.4-0.5-0.5-1.1-0.5-1.9l0.8-8.7c-1,1.8-2.1,3.5-3.3,4.9c-1.2,1.5-2.4,2.7-3.8,3.8
			c-1.3,1-2.7,1.8-4.2,2.4c-1.5,0.6-3,0.9-4.5,0.9c-1.7,0-3.3-0.3-4.7-1c-1.4-0.7-2.6-1.7-3.6-3c-1-1.3-1.8-2.9-2.3-4.8
			c-0.5-1.9-0.8-4.1-0.8-6.5c0-2.6,0.3-5.1,1-7.5c0.6-2.4,1.6-4.8,2.7-6.9c1.2-2.2,2.6-4.2,4.3-6c1.7-1.8,3.5-3.4,5.6-4.7
			c2-1.3,4.2-2.4,6.6-3.1s4.8-1.1,7.4-1.1c1.9,0,3.7,0.2,5.4,0.5c1.8,0.3,3.5,0.8,5.2,1.6L617.3,374.7z M598.6,369
			c1.4,0,2.8-0.4,4.1-1.3c1.3-0.9,2.6-2,3.8-3.6c1.2-1.5,2.3-3.3,3.4-5.4c1-2.1,2-4.4,2.8-6.9l1.8-14.7c-0.6-0.5-1.3-0.8-1.9-0.8
			c-0.6,0-1.2,0-1.8,0c-1.7,0-3.4,0.3-5,0.8c-1.6,0.6-3.1,1.3-4.5,2.3c-1.4,1-2.7,2.2-3.8,3.6c-1.1,1.4-2.1,2.9-2.9,4.6
			c-0.8,1.7-1.5,3.4-1.9,5.3c-0.5,1.9-0.7,3.8-0.7,5.8C592,365.5,594.2,369,598.6,369z"/>
		<path d="M674.6,374.7c-1,0-1.7-0.3-2-0.8c-0.4-0.5-0.5-1.1-0.5-1.9l0.8-9.1c-1.1,1.9-2.3,3.5-3.6,5.1c-1.3,1.5-2.6,2.8-4.1,3.9
			c-1.4,1.1-2.9,1.9-4.4,2.5c-1.5,0.6-3.1,0.9-4.7,0.9c-3.7,0-6.6-1.4-8.6-4.1c-2-2.7-3.1-6.6-3.1-11.8c0-2.3,0.2-4.7,0.7-7
			c0.5-2.3,1.2-4.6,2.1-6.7s2-4.1,3.3-6c1.3-1.8,2.7-3.4,4.2-4.8c1.6-1.3,3.3-2.4,5.1-3.2c1.8-0.8,3.7-1.2,5.7-1.2
			c2.1,0,4.1,0.4,5.8,1.2c1.8,0.8,3.3,2,4.5,3.6l3-23.9h7.5l-7.8,63.2H674.6z M659.1,369.2c1.4,0,2.8-0.4,4.1-1.3
			c1.4-0.8,2.7-2,4-3.5c1.3-1.5,2.5-3.3,3.6-5.4c1.1-2.1,2.1-4.3,2.9-6.8l1.4-11.5c-1.1-1.5-2.4-2.6-3.9-3.2c-1.5-0.6-3-0.9-4.6-0.9
			c-2.3,0-4.3,0.7-6.1,2c-1.8,1.3-3.4,3.1-4.6,5.2c-1.3,2.1-2.3,4.5-2.9,7.1c-0.7,2.6-1,5.2-1,7.8c0,3.4,0.6,6,1.8,7.8
			C655.1,368.3,656.8,369.2,659.1,369.2z"/>
		<path d="M725.1,340.6c0,1.9-0.4,3.6-1.2,5.2c-0.8,1.6-2.2,3-4.2,4.3c-2.1,1.3-4.9,2.4-8.5,3.3c-3.6,0.9-8.2,1.7-13.9,2.3
			c0,0.3,0,0.6,0,0.9c0,0.3,0,0.6,0,0.9c0,3.8,0.8,6.8,2.5,8.8c1.7,2,4.2,3,7.6,3c1.4,0,2.6-0.1,3.7-0.4c1.1-0.3,2-0.6,2.9-1.1
			c0.8-0.4,1.6-0.9,2.2-1.4c0.6-0.5,1.2-1,1.8-1.4c0.5-0.4,1-0.8,1.5-1.1c0.5-0.3,0.9-0.4,1.4-0.4c0.5,0,1,0.2,1.4,0.7l1.9,2.4
			c-1.5,1.5-2.9,2.8-4.3,3.9c-1.4,1.1-2.8,2-4.3,2.7c-1.5,0.7-3,1.2-4.6,1.6c-1.6,0.3-3.3,0.5-5.1,0.5c-2.5,0-4.7-0.4-6.7-1.2
			c-2-0.8-3.6-2-5-3.5c-1.4-1.5-2.4-3.4-3.2-5.6c-0.7-2.2-1.1-4.6-1.1-7.3c0-2.2,0.2-4.5,0.7-6.7s1.2-4.3,2.1-6.3
			c0.9-2,2-3.9,3.3-5.6c1.3-1.7,2.8-3.2,4.5-4.4c1.7-1.2,3.5-2.2,5.5-2.9c2-0.7,4.2-1.1,6.5-1.1c2.2,0,4.1,0.3,5.7,0.9
			c1.6,0.6,2.9,1.4,3.9,2.4c1,1,1.8,2,2.3,3.2C724.9,338.4,725.1,339.5,725.1,340.6z M712,336.2c-1.8,0-3.5,0.4-5,1.1
			c-1.5,0.7-2.9,1.8-4,3.1c-1.2,1.3-2.2,2.8-3,4.6c-0.8,1.8-1.5,3.7-1.9,5.7c4.4-0.5,7.9-1.2,10.6-1.9c2.7-0.7,4.7-1.5,6.1-2.3
			c1.4-0.8,2.4-1.7,2.8-2.6c0.5-0.9,0.7-1.9,0.7-3c0-0.5-0.1-1.1-0.3-1.6c-0.2-0.6-0.6-1.1-1.1-1.5c-0.5-0.5-1.2-0.8-2-1.1
			C714.1,336.3,713.1,336.2,712,336.2z"/>
		<path d="M757.9,338.2c-0.2,0.3-0.5,0.6-0.7,0.7c-0.2,0.2-0.5,0.2-0.9,0.2c-0.4,0-0.8-0.2-1.3-0.5c-0.5-0.3-1-0.7-1.7-1.1
			c-0.7-0.4-1.5-0.7-2.5-1.1c-1-0.3-2.1-0.5-3.5-0.5c-1.3,0-2.5,0.2-3.5,0.5c-1.1,0.4-2,0.9-2.7,1.5c-0.8,0.6-1.4,1.4-1.8,2.2
			c-0.4,0.8-0.6,1.7-0.6,2.7c0,1.3,0.4,2.4,1.3,3.2c0.9,0.8,2,1.5,3.3,2.1c1.3,0.6,2.8,1.2,4.4,1.7c1.6,0.5,3,1.2,4.4,2.1
			c1.3,0.8,2.5,1.9,3.3,3.2c0.9,1.3,1.3,3,1.3,5c0,2-0.4,3.9-1.2,5.7c-0.8,1.8-1.9,3.4-3.4,4.8c-1.5,1.4-3.2,2.5-5.3,3.3
			c-2.1,0.8-4.4,1.2-7,1.2c-2.8,0-5.2-0.5-7.4-1.5c-2.1-1-3.9-2.3-5.2-3.8l1.9-2.9c0.2-0.4,0.5-0.7,0.8-0.9c0.3-0.2,0.7-0.3,1.2-0.3
			c0.5,0,0.9,0.2,1.4,0.6s1,0.9,1.7,1.4c0.7,0.5,1.6,1,2.6,1.4c1,0.4,2.4,0.6,4,0.6c1.4,0,2.7-0.2,3.8-0.6c1.1-0.4,2.1-1,2.9-1.7
			c0.8-0.7,1.4-1.6,1.8-2.5c0.4-1,0.6-2,0.6-3.1c0-1.5-0.4-2.6-1.3-3.5c-0.9-0.9-2-1.6-3.3-2.1c-1.3-0.6-2.8-1.1-4.3-1.6
			c-1.5-0.5-3-1.1-4.3-1.9s-2.5-1.8-3.3-3.1c-0.9-1.3-1.3-2.9-1.3-5c0-1.8,0.4-3.6,1.1-5.3c0.7-1.7,1.8-3.2,3.2-4.5
			c1.4-1.3,3-2.4,5-3.2c2-0.8,4.2-1.2,6.6-1.2c2.6,0,4.9,0.4,6.9,1.3c2,0.9,3.7,2.1,5.1,3.5L757.9,338.2z"/>
		<path d="M777.1,331.3l-5.2,43.5h-7.5l5.2-43.5H777.1z M779.9,317.6c0,0.7-0.2,1.4-0.5,2.1s-0.7,1.2-1.2,1.7
			c-0.5,0.5-1.1,0.9-1.7,1.2c-0.6,0.3-1.3,0.4-2,0.4c-0.7,0-1.3-0.1-1.9-0.4c-0.6-0.3-1.2-0.7-1.7-1.2s-0.9-1.1-1.1-1.7
			c-0.3-0.6-0.4-1.3-0.4-2.1c0-0.7,0.1-1.4,0.4-2.1c0.3-0.7,0.7-1.2,1.2-1.7c0.5-0.5,1-0.9,1.7-1.2c0.6-0.3,1.3-0.5,1.9-0.5
			c0.7,0,1.3,0.1,2,0.4c0.6,0.3,1.2,0.7,1.7,1.2c0.5,0.5,0.9,1.1,1.2,1.8C779.8,316.2,779.9,316.9,779.9,317.6z"/>
		<path d="M784.2,374.7l5.2-43.5h3.8c1.7,0,2.6,0.9,2.6,2.6l-0.6,8.4c2.3-3.8,4.9-6.7,7.8-8.7c2.9-1.9,5.9-2.9,9-2.9
			c3.2,0,5.7,1.1,7.5,3.3c1.8,2.2,2.7,5.3,2.7,9.5c0,0.6,0,1.2,0,1.8c0,0.6-0.1,1.2-0.2,1.9l-3.3,27.7h-7.6l3.3-27.7
			c0.1-0.6,0.1-1.1,0.2-1.7s0.1-1,0.1-1.5c0-2.3-0.4-4.1-1.3-5.2c-0.9-1.1-2.2-1.7-4.1-1.7c-1.4,0-2.8,0.4-4.2,1.1
			c-1.4,0.7-2.8,1.8-4.1,3.2c-1.3,1.4-2.5,3-3.7,4.9c-1.1,1.9-2.1,4.1-2.9,6.5l-2.5,22.1H784.2z"/>
		<path d="M842.3,337.6l-4.3,35.7l-2,8.9c-0.5,2.1-1.8,3.2-3.9,3.2h-3l5.8-47.7l-4.3-0.6c-0.5-0.1-0.9-0.3-1.2-0.6
			c-0.3-0.3-0.4-0.6-0.4-1.1l0.3-3.3h6.2l0.5-4.2c0.3-2.5,0.9-4.7,1.9-6.6c0.9-1.9,2.1-3.6,3.5-4.9c1.4-1.3,3-2.3,4.8-3
			c1.8-0.7,3.8-1,5.9-1c1.8,0,3.4,0.3,4.8,0.9l-0.7,3.9c-0.1,0.4-0.3,0.6-0.6,0.7c-0.3,0.1-0.8,0.2-1.3,0.2c-0.3,0-0.5,0-0.8,0
			s-0.6,0-1,0c-1.2,0-2.4,0.2-3.4,0.5s-2,0.9-2.8,1.7c-0.8,0.8-1.5,1.8-2,3.1c-0.5,1.3-0.9,2.9-1.2,4.7l-0.5,4h10.9l-0.7,5.5H842.3z
			"/>
		<path d="M870.7,375.3c-2.4,0-4.5-0.4-6.5-1.2c-2-0.8-3.7-2-5.1-3.5c-1.4-1.5-2.5-3.4-3.3-5.7c-0.8-2.2-1.2-4.8-1.2-7.6
			c0-3.7,0.6-7.1,1.7-10.3c1.1-3.2,2.7-6.1,4.7-8.5c2-2.4,4.3-4.3,7-5.7c2.7-1.4,5.6-2.1,8.8-2.1c2.4,0,4.5,0.4,6.5,1.2
			c2,0.8,3.7,2,5.1,3.5c1.4,1.5,2.5,3.4,3.3,5.7c0.8,2.2,1.2,4.8,1.2,7.6c0,3.6-0.6,7.1-1.7,10.3c-1.1,3.2-2.7,6.1-4.7,8.5
			c-2,2.4-4.3,4.4-7.1,5.8C876.8,374.6,873.9,375.3,870.7,375.3z M871.4,369.4c2.1,0,4-0.6,5.7-1.7c1.7-1.1,3.2-2.7,4.4-4.6
			c1.2-1.9,2.1-4.1,2.8-6.6c0.7-2.5,1-5.1,1-7.8c0-4-0.8-7-2.4-9.1c-1.6-2-3.8-3-6.8-3c-2.1,0-4,0.6-5.7,1.7
			c-1.7,1.1-3.2,2.6-4.4,4.5c-1.2,1.9-2.1,4.1-2.8,6.6c-0.7,2.5-1,5.1-1,7.8c0,4,0.8,7,2.3,9.1C866.1,368.3,868.4,369.4,871.4,369.4
			z"/>
		<path d="M898.4,374.7l5.2-43.5h3.8c0.8,0,1.4,0.2,1.9,0.6c0.5,0.4,0.7,0.9,0.7,1.7c0,0.1,0,0.3,0,0.5c0,0.2,0,0.4,0,0.7
			c0,0.2,0,0.4,0,0.6c0,0.2,0,0.3,0,0.3l-0.6,7.9c1.9-4,3.9-7.1,6.2-9.3c2.3-2.2,4.7-3.3,7.3-3.3c1.2,0,2.4,0.3,3.6,0.8L925,339
			c-1.3-0.5-2.6-0.8-3.9-0.8c-2.8,0-5.2,1.4-7.4,4.1c-2.2,2.7-4,6.8-5.4,12.3l-2.4,20.2H898.4z"/>
		<path d="M928.5,374.7l5.2-43.5h3.8c1.7,0,2.6,0.9,2.6,2.6l-0.6,7.8c2.1-3.6,4.5-6.3,7-8.2c2.5-1.8,5.2-2.8,8.1-2.8
			c2.9,0,5.1,1,6.5,3c1.4,2,2.1,4.9,2.1,8.6c2.2-4,4.6-6.9,7.3-8.8c2.7-1.9,5.5-2.9,8.5-2.9c3.2,0,5.6,1,7.2,3.1
			c1.6,2.1,2.4,5.1,2.4,9c0,0.7,0,1.3-0.1,2.1s-0.1,1.5-0.2,2.2l-3.3,27.7h-7.5l3.3-27.7c0.2-1.4,0.3-2.7,0.3-3.8
			c0-2.1-0.4-3.7-1.1-4.7c-0.7-1-1.9-1.5-3.6-1.5c-1.2,0-2.5,0.3-3.7,0.9c-1.2,0.6-2.4,1.5-3.6,2.7c-1.1,1.2-2.2,2.7-3.2,4.4
			c-1,1.8-1.9,3.8-2.6,6.1l-2.8,23.6H953l3.3-27.7c0.1-0.8,0.2-1.5,0.2-2.2c0.1-0.7,0.1-1.3,0.1-1.9c0-2-0.3-3.5-1-4.5
			c-0.7-1-1.9-1.5-3.5-1.5c-1.4,0-2.7,0.3-4,1c-1.3,0.7-2.5,1.7-3.6,3c-1.1,1.3-2.2,2.9-3.2,4.8c-1,1.9-1.9,4-2.7,6.3l-2.7,22.6
			H928.5z"/>
		<path d="M1027.7,374.7h-3.9c-1,0-1.7-0.3-2-0.8c-0.4-0.5-0.5-1.1-0.5-1.9l0.8-8.7c-1,1.8-2.1,3.5-3.3,4.9
			c-1.2,1.5-2.4,2.7-3.8,3.8c-1.3,1-2.7,1.8-4.2,2.4c-1.5,0.6-3,0.9-4.5,0.9c-1.7,0-3.3-0.3-4.7-1c-1.4-0.7-2.6-1.7-3.6-3
			c-1-1.3-1.8-2.9-2.3-4.8c-0.5-1.9-0.8-4.1-0.8-6.5c0-2.6,0.3-5.1,1-7.5c0.6-2.4,1.6-4.8,2.7-6.9c1.2-2.2,2.6-4.2,4.3-6
			c1.7-1.8,3.5-3.4,5.6-4.7c2-1.3,4.2-2.4,6.6-3.1c2.3-0.7,4.8-1.1,7.4-1.1c1.9,0,3.7,0.2,5.4,0.5c1.8,0.3,3.5,0.8,5.2,1.6
			L1027.7,374.7z M1008.9,369c1.4,0,2.8-0.4,4.1-1.3c1.3-0.9,2.6-2,3.8-3.6c1.2-1.5,2.3-3.3,3.4-5.4c1-2.1,2-4.4,2.8-6.9l1.8-14.7
			c-0.6-0.5-1.2-0.8-1.9-0.8s-1.2,0-1.8,0c-1.7,0-3.4,0.3-5,0.8c-1.6,0.6-3.1,1.3-4.5,2.3c-1.4,1-2.7,2.2-3.8,3.6
			c-1.1,1.4-2.1,2.9-2.9,4.6c-0.8,1.7-1.5,3.4-1.9,5.3c-0.5,1.9-0.7,3.8-0.7,5.8C1002.3,365.5,1004.5,369,1008.9,369z"/>
		<path d="M1066.9,371c-1.3,1.1-2.7,2-4,2.6c-1.3,0.6-2.7,1.1-4.2,1.4c-1.4,0.3-3,0.4-4.7,0.4c-2.5,0-4.7-0.4-6.7-1.3
			c-1.9-0.9-3.5-2.1-4.8-3.6c-1.3-1.6-2.3-3.4-3-5.6c-0.7-2.2-1-4.6-1-7.2c0-3.5,0.6-6.9,1.7-10.1c1.1-3.2,2.6-6.1,4.6-8.6
			c2-2.5,4.3-4.5,7-6c2.7-1.5,5.7-2.2,9-2.2c2.9,0,5.3,0.5,7.2,1.5c1.9,1,3.6,2.5,5.1,4.4l-2.4,2.9c-0.2,0.2-0.4,0.4-0.6,0.6
			c-0.3,0.1-0.5,0.2-0.9,0.2c-0.4,0-0.8-0.2-1.2-0.5c-0.4-0.4-0.9-0.8-1.5-1.2c-0.6-0.4-1.4-0.8-2.3-1.2c-0.9-0.4-2.1-0.5-3.6-0.5
			c-2,0-3.8,0.5-5.6,1.6c-1.8,1.1-3.3,2.5-4.6,4.4c-1.3,1.9-2.4,4.1-3.1,6.6c-0.8,2.5-1.1,5.3-1.1,8.2c0,1.8,0.2,3.4,0.6,4.8
			c0.4,1.4,1,2.7,1.8,3.7c0.8,1,1.8,1.8,2.9,2.4c1.2,0.6,2.5,0.8,4.1,0.8c1.3,0,2.4-0.1,3.4-0.4c1-0.3,1.9-0.6,2.7-1
			c0.8-0.4,1.4-0.8,2-1.3c0.6-0.5,1.1-0.9,1.6-1.3s0.9-0.7,1.3-1c0.4-0.3,0.8-0.4,1.2-0.4c0.6,0,1.1,0.2,1.5,0.7l1.9,2.3
			C1069.6,368.5,1068.2,369.9,1066.9,371z"/>
		<path d="M1089.9,331.3l-5.2,43.5h-7.5l5.2-43.5H1089.9z M1092.8,317.6c0,0.7-0.2,1.4-0.5,2.1s-0.7,1.2-1.2,1.7
			c-0.5,0.5-1.1,0.9-1.7,1.2c-0.6,0.3-1.3,0.4-2,0.4c-0.7,0-1.3-0.1-1.9-0.4c-0.6-0.3-1.2-0.7-1.7-1.2c-0.5-0.5-0.9-1.1-1.1-1.7
			c-0.3-0.6-0.4-1.3-0.4-2.1c0-0.7,0.1-1.4,0.4-2.1c0.3-0.7,0.7-1.2,1.2-1.7c0.5-0.5,1-0.9,1.7-1.2c0.6-0.3,1.3-0.5,1.9-0.5
			c0.7,0,1.3,0.1,2,0.4c0.6,0.3,1.2,0.7,1.7,1.2c0.5,0.5,0.9,1.1,1.2,1.8C1092.7,316.2,1092.8,316.9,1092.8,317.6z"/>
		<path d="M1112.5,375.3c-2.4,0-4.5-0.4-6.5-1.2c-2-0.8-3.7-2-5.1-3.5c-1.4-1.5-2.5-3.4-3.3-5.7c-0.8-2.2-1.2-4.8-1.2-7.6
			c0-3.7,0.6-7.1,1.7-10.3c1.1-3.2,2.7-6.1,4.7-8.5c2-2.4,4.3-4.3,7-5.7c2.7-1.4,5.6-2.1,8.8-2.1c2.4,0,4.5,0.4,6.5,1.2
			c2,0.8,3.7,2,5.1,3.5c1.4,1.5,2.5,3.4,3.3,5.7c0.8,2.2,1.2,4.8,1.2,7.6c0,3.6-0.6,7.1-1.7,10.3c-1.1,3.2-2.7,6.1-4.7,8.5
			c-2,2.4-4.3,4.4-7.1,5.8C1118.6,374.6,1115.7,375.3,1112.5,375.3z M1113.2,369.4c2.1,0,4-0.6,5.7-1.7c1.7-1.1,3.2-2.7,4.4-4.6
			c1.2-1.9,2.1-4.1,2.8-6.6c0.7-2.5,1-5.1,1-7.8c0-4-0.8-7-2.4-9.1c-1.6-2-3.8-3-6.8-3c-2.1,0-4,0.6-5.7,1.7
			c-1.7,1.1-3.2,2.6-4.4,4.5c-1.2,1.9-2.1,4.1-2.8,6.6c-0.7,2.5-1,5.1-1,7.8c0,4,0.8,7,2.3,9.1
			C1107.9,368.3,1110.2,369.4,1113.2,369.4z M1132.1,312.6l-10.6,11c-0.4,0.4-0.8,0.7-1.2,0.9c-0.4,0.2-0.9,0.3-1.5,0.3h-4.4
			l7.1-10.4c0.4-0.6,0.8-1.1,1.3-1.4c0.5-0.3,1.2-0.4,2.1-0.4H1132.1z"/>
		<path d="M1140.2,374.7l5.2-43.5h3.8c1.7,0,2.6,0.9,2.6,2.6l-0.6,8.4c2.3-3.8,4.9-6.7,7.8-8.7c2.9-1.9,5.9-2.9,9-2.9
			c3.2,0,5.7,1.1,7.5,3.3c1.8,2.2,2.7,5.3,2.7,9.5c0,0.6,0,1.2,0,1.8c0,0.6-0.1,1.2-0.2,1.9l-3.3,27.7h-7.6l3.3-27.7
			c0.1-0.6,0.1-1.1,0.2-1.7c0-0.5,0.1-1,0.1-1.5c0-2.3-0.4-4.1-1.3-5.2c-0.9-1.1-2.2-1.7-4.1-1.7c-1.4,0-2.8,0.4-4.2,1.1
			c-1.4,0.7-2.8,1.8-4.1,3.2c-1.3,1.4-2.5,3-3.7,4.9c-1.1,1.9-2.1,4.1-2.9,6.5l-2.5,22.1H1140.2z"/>
	</g>
	<g>
		<polygon points="66.9,172.5 66.6,172.5 66.6,172.5 		"/>
	</g>
	<g>
		<path d="M128.9,191.6l2.5-15.4l-4-3.7h-17.2l0,0h0l-3,0l7.5-43.4l0-0.2h-18l-8.3,43.6H66.6l0,0l-3.3,0l7.5-43.4H53.2l-8.5,43.4
			H22.4L20,187.3l4.4,4.2l17.7,0l-5.6,29.6H16.1L13.7,236l4.4,4.2h15.7h0.1l-7.4,37.9l2.9,5.4l18,0l-2.4-5.9l6.7-38.8l3.3,1.2l0,0.1
			h0.5h21.6l-6.5,38.6l2.9,4.6l17.9,0.1l-2.4-5.9l6.6-38.3l0.2,0.1l2.9,1.3l0,0l0.2,0.1H99h22.8l2.5-15.4l-4-3.7H103l-0.7,0l-3.6,0
			l5.5-31.6l3.3,1.4h0.1l0,0H128.9z M80.3,221.2H58.4l0,0.1h-3.6l5.4-31.2l3.4,1.3l0,0l22.1,0.2L80.3,221.2z"/>
	</g>
</g>
<g>
	<g>
		<path class="st9" d="M791.5,293.6V168.5h15c1.6,0,2.9,0.4,4.1,1.1c1.1,0.7,1.9,1.9,2.2,3.4l2,9.4c4.1-4.7,8.8-8.5,14.2-11.4
			c5.3-2.9,11.6-4.4,18.7-4.4c5.6,0,10.7,1.2,15.3,3.5c4.6,2.3,8.6,5.7,11.9,10.1c3.3,4.4,5.9,9.8,7.8,16.3
			c1.8,6.5,2.7,13.9,2.7,22.2c0,7.6-1,14.7-3.1,21.2c-2.1,6.5-5,12.1-8.8,16.9c-3.8,4.8-8.4,8.5-13.8,11.2c-5.4,2.7-11.4,4-18.1,4
			c-5.8,0-10.7-0.9-14.7-2.6c-4-1.8-7.6-4.2-10.8-7.3v31.6H791.5z M839.2,186c-5.1,0-9.5,1.1-13.1,3.2c-3.6,2.2-7,5.2-10.1,9.1V244
			c2.8,3.4,5.8,5.8,9.1,7.2c3.3,1.4,6.8,2,10.6,2c3.7,0,7.1-0.7,10.1-2.1c3-1.4,5.6-3.5,7.7-6.4c2.1-2.8,3.7-6.4,4.8-10.8
			c1.1-4.3,1.7-9.5,1.7-15.4c0-6-0.5-11-1.4-15.2c-1-4.1-2.3-7.5-4.1-10.1c-1.8-2.6-4-4.5-6.5-5.7C845.3,186.6,842.4,186,839.2,186z
			"/>
	</g>
	<g>
		<path class="st9" d="M983.8,270.5h-11c-2.3,0-4.1-0.3-5.5-1c-1.3-0.7-2.3-2.1-3-4.2l-2.2-7.3c-2.6,2.3-5.1,4.4-7.6,6.1
			c-2.5,1.8-5.1,3.2-7.7,4.4c-2.6,1.2-5.5,2.1-8.4,2.7c-3,0.6-6.3,0.9-9.9,0.9c-4.3,0-8.3-0.6-11.9-1.7c-3.6-1.2-6.8-2.9-9.4-5.2
			s-4.7-5.2-6.1-8.7c-1.5-3.5-2.2-7.5-2.2-12.1c0-3.9,1-7.7,3-11.4c2-3.8,5.4-7.1,10.1-10.2c4.7-3,11-5.5,18.8-7.5
			c7.8-2,17.5-3,29.1-3v-6c0-6.9-1.4-12-4.3-15.3c-2.9-3.3-7.1-5-12.6-5c-4,0-7.3,0.5-9.9,1.4c-2.6,0.9-5,2-6.9,3.1
			c-2,1.2-3.8,2.2-5.4,3.1c-1.7,0.9-3.5,1.4-5.5,1.4c-1.7,0-3.1-0.4-4.3-1.3c-1.2-0.9-2.2-1.9-2.9-3.2l-4.5-7.9
			c11.7-10.7,25.9-16.1,42.4-16.1c6,0,11.3,1,16,2.9c4.7,2,8.6,4.7,11.9,8.2c3.2,3.5,5.7,7.6,7.4,12.5c1.7,4.8,2.5,10.1,2.5,15.9
			V270.5z M936.1,255.1c2.5,0,4.8-0.2,7-0.7c2.1-0.5,4.1-1.1,6-2.1c1.9-0.9,3.7-2,5.5-3.4c1.8-1.3,3.5-2.9,5.3-4.7v-17.1
			c-7.2,0-13.1,0.5-17.9,1.4s-8.7,2.1-11.6,3.5c-2.9,1.4-5,3-6.2,4.9c-1.2,1.9-1.8,3.9-1.8,6.1c0,4.3,1.3,7.4,3.8,9.3
			C928.7,254.2,932,255.1,936.1,255.1z"/>
	</g>
	<g>
		<path class="st9" d="M1008,270.5v-102h14.4c2.5,0,4.3,0.5,5.3,1.4c1,0.9,1.7,2.5,2,4.8l1.5,12.3c3.6-6.3,7.9-11.3,12.8-14.9
			c4.9-3.6,10.4-5.5,16.5-5.5c5,0,9.2,1.2,12.5,3.5l-3.2,18.4c-0.2,1.2-0.6,2-1.3,2.5c-0.7,0.5-1.6,0.7-2.7,0.7
			c-1,0-2.4-0.2-4.1-0.7c-1.7-0.5-4-0.7-6.9-0.7c-5.1,0-9.5,1.4-13.1,4.2c-3.6,2.8-6.7,6.9-9.2,12.4v63.5H1008z"/>
	</g>
	<g>
		<path class="st9" d="M1132.7,166.9c7.6,0,14.5,1.2,20.7,3.7c6.2,2.5,11.5,5.9,15.9,10.4c4.4,4.5,7.8,10,10.1,16.5
			c2.4,6.5,3.6,13.8,3.6,21.8c0,8.1-1.2,15.4-3.6,21.9c-2.4,6.5-5.8,12-10.1,16.6c-4.4,4.6-9.7,8.1-15.9,10.5
			c-6.2,2.5-13.1,3.7-20.7,3.7c-7.6,0-14.5-1.2-20.8-3.7c-6.2-2.5-11.5-6-16-10.5c-4.4-4.6-7.8-10.1-10.2-16.6
			c-2.4-6.5-3.6-13.8-3.6-21.9c0-8,1.2-15.3,3.6-21.8c2.4-6.5,5.8-12,10.2-16.5c4.4-4.5,9.7-8,16-10.4
			C1118.2,168.1,1125.1,166.9,1132.7,166.9z M1132.7,253.1c8.5,0,14.8-2.8,18.8-8.5c4.1-5.7,6.1-14,6.1-25c0-11-2-19.4-6.1-25.1
			c-4.1-5.8-10.4-8.6-18.8-8.6c-8.6,0-15,2.9-19.1,8.7c-4.1,5.8-6.2,14.2-6.2,25.1c0,10.9,2.1,19.3,6.2,25
			C1117.7,250.2,1124.1,253.1,1132.7,253.1z"/>
	</g>
</g>
</svg>
