<?xml version="1.0" encoding="utf-8"?>
<!-- Generator: Adobe Illustrator 21.1.0, SVG Export Plug-In . SVG Version: 6.00 Build 0)  -->
<svg version="1.1" id="Layer_1" xmlns="http://www.w3.org/2000/svg" xmlns:xlink="http://www.w3.org/1999/xlink" x="0px" y="0px"
	 viewBox="0 0 932.3 268.7" style="enable-background:new 0 0 932.3 268.7;" xml:space="preserve">
<style type="text/css">
	.st0{display:none;}
	.st1{display:inline;fill:#FFFDEF;}
	.st2{display:inline;fill:#95C11F;}
	.st3{display:inline;fill:url(#SVGID_1_);}
	.st4{display:inline;}
	.st5{filter:url(#Adobe_OpacityMaskFilter);}
	.st6{mask:url(#SVGID_2_);}
	.st7{display:inline;fill:#212121;}
	.st8{font-family:'Signika-Semibold';}
	.st9{font-size:100px;}
	.st10{fill:#29BBE2;}
</style>
<g id="Livello_3" class="st0">
	<rect x="-210.5" y="28.1" class="st1" width="500" height="500"/>
</g>
<g id="Livello_4" class="st0">
	<path class="st2" d="M124.1,210.7c0,4.8-0.4,9.5-1.1,14c-2.5,15.5-9,29.6-18.5,41.2c-3.7,4.6-7.9,8.8-12.5,12.5
		c-11.5,9.4-25.5,15.9-40.8,18.5c-4.7,0.8-9.5,1.2-14.4,1.2c-48.2,0-87.3-39.1-87.3-87.3c0-48.2,39.1-87.3,87.3-87.3
		C85,123.4,124.1,162.5,124.1,210.7z"/>
	
		<linearGradient id="SVGID_1_" gradientUnits="userSpaceOnUse" x1="36.6071" y1="214.524" x2="98.3621" y2="152.769" gradientTransform="matrix(1 0 0 -1 0 424.798)">
		<stop  offset="0" style="stop-color:#F9B233"/>
		<stop  offset="1" style="stop-color:#FFFFFF"/>
	</linearGradient>
	<path class="st3" d="M123,224.7c-2.5,15.5-9,29.6-18.5,41.2L92,278.4c-11.5,9.4-25.5,15.9-40.8,18.5L0.6,246.3l72-72L123,224.7z"/>
</g>
<g id="Livello_5" class="st0">
	<g class="st4">
		<defs>
			<filter id="Adobe_OpacityMaskFilter" filterUnits="userSpaceOnUse" x="-2.9" y="282.8" width="79.5" height="17.3">
				<feColorMatrix  type="matrix" values="1 0 0 0 0  0 1 0 0 0  0 0 1 0 0  0 0 0 1 0"/>
			</filter>
		</defs>
		<mask maskUnits="userSpaceOnUse" x="-2.9" y="282.8" width="79.5" height="17.3" id="SVGID_2_">
			<g class="st5">
				
					<image style="overflow:visible;enable-background:new    ;" width="354" height="96" xlink:href="A4E97F425E9DD19.jpeg"  transform="matrix(0.2359 0 0 0.2225 -4.9237 280.8131)">
				</image>
			</g>
		</mask>
		<g class="st6">
			<ellipse cx="36.8" cy="291.5" rx="39.7" ry="8.7"/>
		</g>
	</g>
</g>
<g id="Livello_2" class="st0">
	<text transform="matrix(1 0 0 1 -138.4556 351.4792)" class="st7 st8 st9">emerald</text>
</g>
<g>
	<g>
		<g>
			<polygon class="st10" points="46,100.6 43.3,99.6 39.1,124 41.9,124 			"/>
		</g>
		<g>
			<polygon class="st10" points="48.4,85.8 48.6,85.8 53.8,56 51.6,51.8 45.7,85.8 			"/>
		</g>
		<g>
			<polygon class="st10" points="36.7,137.8 31.5,168.2 33.4,172.8 39.3,138.8 			"/>
		</g>
	</g>
	<g>
		<g>
			<polygon class="st10" points="77.8,99.7 73.5,124.4 76.3,124.5 80.4,100.7 80.4,100.7 			"/>
		</g>
		<g>
			<polygon class="st10" points="82.5,85.8 83,85.8 88.3,56 86,51.8 80.1,85.8 			"/>
		</g>
		<g>
			<polygon class="st10" points="73.6,139.4 71.2,138.3 71.1,138.3 65.9,168.2 67.8,172.8 73.7,139.4 			"/>
		</g>
	</g>
	<g>
		<g>
			<g>
				<path d="M144.1,163.7c-6.2,0-11-1.7-14.4-5.2c-3.3-3.5-5-8.5-5-15V95.3h-9.5c-0.8,0-1.5-0.2-2.1-0.7c-0.6-0.5-0.9-1.3-0.9-2.3
					v-5.5l12.9-1.6l3.2-24.3c0.1-0.8,0.4-1.4,1-1.9c0.6-0.5,1.3-0.7,2.2-0.7h7v27.1h22.6v10h-22.6v47.3c0,3.3,0.8,5.8,2.4,7.4
					c1.6,1.6,3.7,2.4,6.2,2.4c1.5,0,2.7-0.2,3.8-0.6c1.1-0.4,2-0.8,2.8-1.3c0.8-0.5,1.4-0.9,2-1.3c0.5-0.4,1-0.6,1.4-0.6
					c0.7,0,1.4,0.4,1.9,1.3l4,6.6c-2.4,2.2-5.3,4-8.6,5.2C151.2,163.1,147.7,163.7,144.1,163.7z"/>
			</g>
			<g>
				<path d="M196.8,58.9c0,1.3-0.3,2.6-0.8,3.8c-0.5,1.2-1.3,2.2-2.2,3.1c-0.9,0.9-2,1.6-3.2,2.1c-1.2,0.5-2.5,0.8-3.8,0.8
					c-1.3,0-2.6-0.3-3.8-0.8c-1.2-0.5-2.2-1.2-3.1-2.1c-0.9-0.9-1.6-1.9-2.1-3.1c-0.5-1.2-0.8-2.4-0.8-3.8c0-1.3,0.3-2.6,0.8-3.9
					c0.5-1.2,1.2-2.3,2.1-3.2c0.9-0.9,1.9-1.6,3.1-2.1c1.2-0.5,2.4-0.8,3.8-0.8c1.3,0,2.6,0.3,3.8,0.8c1.2,0.5,2.2,1.2,3.2,2.1
					c0.9,0.9,1.6,2,2.2,3.2C196.5,56.3,196.8,57.6,196.8,58.9z M193.7,83.7v78.8h-13.8V83.7H193.7z"/>
			</g>
			<g>
				<path d="M218.1,162.5V83.7h7.9c1.5,0,2.5,0.3,3.1,0.9c0.6,0.6,1,1.6,1.2,3l0.9,12.3c2.7-5.5,6-9.8,10-12.9c4-3.1,8.6-4.6,14-4.6
					c2.2,0,4.1,0.2,5.9,0.7c1.8,0.5,3.4,1.2,4.9,2.1l-1.8,10.3c-0.4,1.3-1.2,1.9-2.4,1.9c-0.7,0-1.8-0.2-3.3-0.7
					c-1.5-0.5-3.6-0.7-6.3-0.7c-4.8,0-8.9,1.4-12.1,4.2c-3.2,2.8-6,6.9-8.1,12.2v50.2H218.1z"/>
			</g>
			<g>
				<path d="M335.7,162.5h-6.1c-1.3,0-2.4-0.2-3.3-0.6c-0.8-0.4-1.4-1.3-1.6-2.6l-1.6-7.3c-2.1,1.9-4.1,3.5-6.1,5
					c-2,1.5-4,2.7-6.2,3.7c-2.2,1-4.5,1.8-7,2.3c-2.5,0.5-5.2,0.8-8.2,0.8c-3.1,0-5.9-0.4-8.6-1.3c-2.7-0.9-5-2.1-7-3.9
					c-2-1.7-3.5-3.9-4.7-6.5c-1.2-2.6-1.8-5.7-1.8-9.3c0-3.1,0.9-6.1,2.6-9c1.7-2.9,4.5-5.5,8.3-7.7c3.8-2.2,8.8-4.1,15-5.5
					c6.2-1.4,13.7-2.1,22.6-2.1v-6.2c0-6.2-1.3-10.8-3.9-14c-2.6-3.2-6.5-4.7-11.6-4.7c-3.4,0-6.2,0.4-8.5,1.3
					c-2.3,0.9-4.3,1.8-6,2.9c-1.7,1.1-3.1,2-4.4,2.9c-1.2,0.9-2.4,1.3-3.6,1.3c-0.9,0-1.8-0.2-2.5-0.7c-0.7-0.5-1.3-1.1-1.7-1.8
					l-2.5-4.4c4.4-4.2,9-7.3,14.1-9.4c5-2.1,10.6-3.1,16.7-3.1c4.4,0,8.3,0.7,11.7,2.2c3.4,1.5,6.3,3.5,8.6,6.1
					c2.3,2.6,4.1,5.7,5.3,9.4c1.2,3.7,1.8,7.7,1.8,12.1V162.5z M299.8,154c2.4,0,4.7-0.2,6.7-0.7c2-0.5,3.9-1.2,5.7-2.1
					c1.8-0.9,3.5-2,5.1-3.3c1.6-1.3,3.2-2.8,4.8-4.4v-16.3c-6.4,0-11.8,0.4-16.3,1.2c-4.5,0.8-8.1,1.9-10.9,3.2
					c-2.8,1.3-4.8,2.8-6.1,4.6c-1.3,1.8-1.9,3.8-1.9,5.9c0,2.1,0.3,3.9,1,5.4c0.7,1.5,1.6,2.8,2.7,3.7c1.1,1,2.5,1.7,4,2.1
					C296.3,153.8,298,154,299.8,154z"/>
			</g>
			<g>
				<path d="M356.7,162.5V83.7h8.2c2,0,3.2,1,3.7,2.9l1.1,8.6c3.4-3.8,7.2-6.8,11.5-9.2c4.2-2.3,9.1-3.5,14.7-3.5
					c4.3,0,8.1,0.7,11.4,2.1c3.3,1.4,6,3.4,8.2,6.1c2.2,2.6,3.9,5.8,5,9.5c1.1,3.7,1.7,7.8,1.7,12.2v50.2h-13.8v-50.2
					c0-6-1.4-10.6-4.1-13.9c-2.7-3.3-6.9-4.9-12.5-4.9c-4.1,0-7.9,1-11.5,3c-3.6,2-6.8,4.6-9.8,8v58H356.7z"/>
			</g>
			<g>
				<path d="M498.7,162.5c-2,0-3.2-1-3.7-2.9l-1.2-9.6c-3.4,4.1-7.2,7.4-11.6,9.8c-4.3,2.5-9.3,3.7-14.9,3.7
					c-4.5,0-8.6-0.9-12.3-2.6c-3.7-1.7-6.8-4.3-9.4-7.7c-2.6-3.4-4.6-7.6-6-12.6c-1.4-5-2.1-10.8-2.1-17.3c0-5.8,0.8-11.2,2.3-16.2
					c1.6-5,3.8-9.3,6.7-13c2.9-3.7,6.5-6.6,10.7-8.7c4.2-2.1,9-3.1,14.3-3.1c4.8,0,8.9,0.8,12.4,2.5c3.4,1.6,6.5,3.9,9.2,6.9V47.9
					H507v114.6H498.7z M471.9,152.4c4.5,0,8.5-1,11.9-3.1c3.4-2.1,6.5-5,9.4-8.8v-38.1c-2.5-3.4-5.3-5.8-8.4-7.2
					c-3-1.4-6.4-2.1-10.1-2.1c-7.4,0-13,2.6-17,7.9c-3.9,5.2-5.9,12.7-5.9,22.4c0,5.1,0.4,9.5,1.3,13.2c0.9,3.7,2.2,6.7,3.9,9
					c1.7,2.4,3.8,4.1,6.3,5.2C465.8,151.8,468.7,152.4,471.9,152.4z"/>
			</g>
			<g>
				<path d="M562.1,82.4c5.8,0,11,1,15.6,2.9c4.6,1.9,8.6,4.6,11.8,8.2c3.2,3.5,5.7,7.8,7.5,12.8c1.7,5,2.6,10.6,2.6,16.8
					c0,6.2-0.9,11.8-2.6,16.8c-1.7,5-4.2,9.2-7.5,12.8c-3.2,3.5-7.2,6.2-11.8,8.1c-4.6,1.9-9.8,2.8-15.6,2.8c-5.8,0-11-0.9-15.6-2.8
					c-4.6-1.9-8.6-4.6-11.9-8.1c-3.3-3.5-5.8-7.8-7.5-12.8c-1.8-5-2.6-10.6-2.6-16.8c0-6.2,0.9-11.8,2.6-16.8
					c1.8-5,4.3-9.3,7.5-12.8c3.3-3.5,7.2-6.2,11.9-8.2C551.2,83.4,556.4,82.4,562.1,82.4z M562.1,152.8c7.8,0,13.6-2.6,17.4-7.8
					c3.8-5.2,5.8-12.5,5.8-21.8c0-9.4-1.9-16.7-5.8-21.9c-3.8-5.2-9.6-7.9-17.4-7.9c-3.9,0-7.4,0.7-10.3,2c-2.9,1.3-5.3,3.3-7.3,5.8
					c-1.9,2.5-3.4,5.7-4.4,9.4c-1,3.7-1.4,7.9-1.4,12.6c0,4.7,0.5,8.8,1.4,12.5c1,3.7,2.4,6.8,4.4,9.3c1.9,2.5,4.4,4.4,7.3,5.8
					C554.7,152.1,558.2,152.8,562.1,152.8z"/>
			</g>
		</g>
	</g>
	<g>
		<path d="M143.5,219.5c0,1.1-0.2,2.1-0.4,3c-0.3,0.9-0.6,1.7-1,2.5c-0.4,0.8-0.8,1.5-1.2,2.1c-0.4,0.7-0.9,1.3-1.2,2
			s-0.7,1.4-1,2.1c-0.3,0.7-0.4,1.5-0.4,2.3c0,0.9,0.2,1.8,0.7,2.6c0.5,0.8,1,1.5,1.5,2.4c0.5,0.8,1.1,1.7,1.5,2.6
			c0.5,1,0.7,2.1,0.7,3.4c0,1.6-0.4,3.1-1.1,4.5c-0.7,1.4-1.8,2.7-3.2,3.8c-1.4,1.1-3,2-5,2.6c-2,0.6-4.2,1-6.6,1
			c-1.9,0-3.7-0.2-5.3-0.6c-1.6-0.4-3-1-4.1-1.7c-1.1-0.7-2-1.6-2.6-2.7c-0.6-1-0.9-2.2-0.9-3.4c0-1.8,0.5-3.3,1.4-4.6
			c0.9-1.3,2.1-2.3,3.6-3.2c1.5-0.8,3.2-1.4,5.1-1.8s3.9-0.6,5.9-0.6c0.8,0,1.6,0,2.4,0.1c0.8,0.1,1.6,0.2,2.4,0.3
			c-0.2-0.4-0.4-0.9-0.5-1.3c-0.1-0.5-0.2-1-0.2-1.5c0-0.7,0.1-1.4,0.3-2.1c0.2-0.7,0.6-1.6,1.1-2.5c-0.9,0.6-1.8,1-2.9,1.3
			c-1.1,0.3-2.2,0.5-3.6,0.5c-1.3,0-2.5-0.2-3.6-0.6c-1.1-0.4-2.1-1.1-3-1.9c-0.9-0.8-1.5-1.9-2-3.1c-0.5-1.2-0.7-2.7-0.7-4.3
			c0-1.6,0.3-3.2,0.9-4.8c0.6-1.6,1.5-2.9,2.6-4.2c1.1-1.2,2.6-2.2,4.2-2.9c1.7-0.7,3.6-1.1,5.8-1.1c2.5,0,4.6,0.6,6.4,1.7h9.2
			l-0.3,2c0,0.4-0.2,0.7-0.4,1c-0.2,0.3-0.5,0.5-1,0.6l-4.2,0.7c0.2,0.6,0.4,1.2,0.5,1.8C143.5,218.1,143.5,218.8,143.5,219.5z
			 M137.3,244.9c0-0.6-0.1-1.1-0.2-1.6c-0.1-0.5-0.3-1-0.4-1.4c-1.2-0.2-2.3-0.3-3.4-0.4c-1.1-0.1-2.1-0.1-3-0.1
			c-1.8,0-3.4,0.2-4.8,0.5c-1.3,0.3-2.5,0.8-3.3,1.3c-0.9,0.5-1.5,1.2-1.9,1.9s-0.6,1.4-0.6,2.2c0,1.6,0.7,2.8,2,3.7
			c1.4,0.9,3.3,1.3,5.8,1.3c1.5,0,2.8-0.2,4-0.6c1.2-0.4,2.3-0.9,3.1-1.6c0.9-0.7,1.5-1.4,2-2.3
			C137.1,246.8,137.3,245.9,137.3,244.9z M130.6,228.7c1.2,0,2.3-0.3,3.2-0.8c0.9-0.5,1.7-1.2,2.3-2.1s1.1-1.8,1.5-2.9
			c0.3-1.1,0.5-2.2,0.5-3.3c0-2-0.5-3.5-1.5-4.5c-1-1-2.4-1.5-4.1-1.5c-1.2,0-2.3,0.2-3.2,0.7c-0.9,0.5-1.7,1.2-2.3,2
			c-0.6,0.8-1.1,1.8-1.4,2.8c-0.3,1.1-0.5,2.1-0.5,3.3c0,2,0.5,3.5,1.5,4.6C127.5,228.2,128.8,228.7,130.6,228.7z"/>
		<path d="M159.2,210.1l-2.6,21.6c0,0.4-0.1,0.9-0.1,1.3c0,0.4-0.1,0.8-0.1,1.2c0,1.8,0.3,3.2,1,4.1c0.7,0.9,1.8,1.3,3.2,1.3
			c1,0,2.1-0.3,3.2-0.8c1.1-0.6,2.1-1.4,3.2-2.4c1-1,2-2.3,2.8-3.7c0.9-1.5,1.6-3.1,2.3-4.9l2.1-17.7h5.9l-4.1,34h-3
			c-0.7,0-1.2-0.2-1.6-0.5c-0.4-0.3-0.6-0.8-0.6-1.4c0,0,0-0.2,0-0.6c0-0.4,0.1-0.8,0.1-1.2s0.1-0.9,0.1-1.2c0-0.4,0.1-0.6,0.1-0.6
			l0.2-2.7c-1.8,2.9-3.8,5.1-6.1,6.6c-2.2,1.5-4.5,2.2-6.9,2.2c-2.5,0-4.5-0.9-5.9-2.6c-1.4-1.7-2.1-4.2-2.1-7.4c0-0.4,0-0.9,0-1.4
			c0-0.5,0.1-1,0.1-1.5l2.5-21.6H159.2z"/>
		<path d="M195.7,210.1l-4.1,34h-5.9l4.1-34H195.7z M203.7,195.5l-8.3,8.6c-0.3,0.3-0.6,0.6-1,0.7c-0.3,0.1-0.7,0.2-1.2,0.2h-3.4
			l5.6-8.1c0.3-0.5,0.7-0.8,1-1.1c0.4-0.2,0.9-0.3,1.6-0.3H203.7z"/>
		<path d="M226.3,244.1h-3.1c-0.8,0-1.3-0.2-1.6-0.6s-0.4-0.9-0.4-1.5l0.6-6.8c-0.8,1.4-1.7,2.7-2.6,3.9c-0.9,1.2-1.9,2.1-3,2.9
			c-1,0.8-2.1,1.4-3.3,1.9c-1.1,0.4-2.3,0.7-3.6,0.7c-1.3,0-2.6-0.3-3.7-0.8c-1.1-0.5-2-1.3-2.8-2.3c-0.8-1-1.4-2.3-1.8-3.8
			c-0.4-1.5-0.6-3.2-0.6-5.1c0-2,0.3-4,0.8-5.9c0.5-1.9,1.2-3.7,2.1-5.4c0.9-1.7,2-3.3,3.3-4.7c1.3-1.4,2.7-2.7,4.3-3.7
			c1.6-1,3.3-1.8,5.2-2.4c1.8-0.6,3.8-0.9,5.8-0.9c1.5,0,2.9,0.1,4.2,0.4c1.4,0.2,2.7,0.7,4.1,1.2L226.3,244.1z M211.7,239.6
			c1.1,0,2.2-0.3,3.2-1c1-0.7,2-1.6,3-2.8c0.9-1.2,1.8-2.6,2.6-4.2c0.8-1.6,1.5-3.4,2.2-5.4l1.4-11.5c-0.5-0.4-1-0.6-1.5-0.6
			c-0.5,0-1,0-1.4,0c-1.3,0-2.6,0.2-3.9,0.7s-2.4,1-3.5,1.8c-1.1,0.8-2.1,1.7-3,2.8c-0.9,1.1-1.7,2.3-2.3,3.6
			c-0.6,1.3-1.1,2.7-1.5,4.1c-0.4,1.5-0.5,3-0.5,4.5C206.5,236.9,208.2,239.6,211.7,239.6z"/>
		<path d="M270,241.2c-1,0.9-2.1,1.5-3.1,2c-1.1,0.5-2.1,0.9-3.3,1.1c-1.1,0.2-2.3,0.3-3.6,0.3c-2,0-3.7-0.3-5.2-1
			c-1.5-0.7-2.8-1.6-3.8-2.8c-1-1.2-1.8-2.7-2.3-4.4c-0.5-1.7-0.8-3.6-0.8-5.7c0-2.8,0.4-5.4,1.3-7.9c0.9-2.5,2.1-4.8,3.6-6.7
			c1.5-1.9,3.4-3.5,5.5-4.7c2.1-1.2,4.5-1.7,7-1.7c2.2,0,4.1,0.4,5.6,1.2c1.5,0.8,2.9,2,4,3.5l-1.9,2.2c-0.1,0.2-0.3,0.3-0.5,0.4
			c-0.2,0.1-0.4,0.2-0.7,0.2c-0.3,0-0.6-0.1-0.9-0.4c-0.3-0.3-0.7-0.6-1.2-0.9c-0.5-0.3-1.1-0.7-1.8-0.9c-0.7-0.3-1.7-0.4-2.8-0.4
			c-1.5,0-3,0.4-4.4,1.3c-1.4,0.8-2.6,2-3.6,3.4c-1,1.5-1.8,3.2-2.4,5.2c-0.6,2-0.9,4.1-0.9,6.4c0,1.4,0.2,2.6,0.5,3.8
			c0.3,1.1,0.8,2.1,1.4,2.9c0.6,0.8,1.4,1.4,2.3,1.8c0.9,0.4,2,0.7,3.2,0.7c1,0,1.9-0.1,2.7-0.3c0.8-0.2,1.5-0.5,2.1-0.8
			c0.6-0.3,1.1-0.7,1.6-1c0.5-0.4,0.9-0.7,1.2-1c0.4-0.3,0.7-0.6,1-0.8c0.3-0.2,0.6-0.3,0.9-0.3c0.4,0,0.8,0.2,1.1,0.6l1.5,1.8
			C272.1,239.3,271,240.3,270,241.2z"/>
		<path d="M289.4,244.6c-1.9,0-3.6-0.3-5.1-1c-1.5-0.6-2.9-1.6-4-2.8c-1.1-1.2-2-2.7-2.6-4.4c-0.6-1.7-0.9-3.7-0.9-6
			c0-2.9,0.4-5.6,1.3-8.1c0.9-2.5,2.1-4.7,3.7-6.6c1.6-1.9,3.4-3.4,5.5-4.5c2.1-1.1,4.4-1.6,6.9-1.6c1.9,0,3.6,0.3,5.1,1
			c1.5,0.6,2.9,1.6,4,2.8c1.1,1.2,2,2.7,2.6,4.4c0.6,1.8,0.9,3.7,0.9,6c0,2.8-0.4,5.5-1.3,8.1c-0.9,2.5-2.1,4.7-3.7,6.6
			c-1.6,1.9-3.4,3.4-5.5,4.5C294.1,244,291.8,244.6,289.4,244.6z M289.9,239.9c1.6,0,3.1-0.4,4.5-1.3c1.3-0.9,2.5-2.1,3.4-3.6
			c0.9-1.5,1.7-3.2,2.2-5.2c0.5-1.9,0.8-4,0.8-6.1c0-3.1-0.6-5.5-1.8-7.1c-1.2-1.6-3-2.4-5.3-2.4c-1.7,0-3.1,0.4-4.5,1.3
			c-1.3,0.9-2.5,2.1-3.4,3.6c-0.9,1.5-1.7,3.2-2.2,5.2c-0.5,1.9-0.8,4-0.8,6.1c0,3.1,0.6,5.5,1.8,7.1
			C285.8,239.1,287.6,239.9,289.9,239.9z"/>
		<path d="M311,244.1l4.1-34h3c1.3,0,2,0.7,2,2l-0.5,6.6c1.8-3,3.9-5.3,6.1-6.8c2.3-1.5,4.6-2.3,7.1-2.3c2.5,0,4.5,0.9,5.9,2.6
			c1.4,1.7,2.1,4.2,2.1,7.5c0,0.4,0,0.9,0,1.4c0,0.5-0.1,1-0.1,1.5l-2.6,21.7h-6l2.6-21.7c0-0.4,0.1-0.9,0.1-1.3
			c0-0.4,0.1-0.8,0.1-1.2c0-1.8-0.3-3.2-1-4.1c-0.7-0.9-1.8-1.3-3.2-1.3c-1.1,0-2.2,0.3-3.3,0.9c-1.1,0.6-2.2,1.4-3.2,2.5
			c-1,1.1-2,2.4-2.9,3.9c-0.9,1.5-1.6,3.2-2.3,5.1l-1.9,17.3H311z"/>
		<path d="M349.3,237.7c0-0.1,0-0.3,0-0.5c0-0.2,0-0.5,0.1-0.9c0-0.4,0.1-0.9,0.2-1.6c0.1-0.6,0.2-1.5,0.3-2.5l2.1-17h-3.8
			c-0.3,0-0.5-0.1-0.7-0.3c-0.2-0.2-0.3-0.4-0.3-0.8c0-0.1,0-0.2,0-0.4c0-0.2,0.1-0.4,0.1-0.7c0-0.3,0.1-0.5,0.1-0.8
			c0-0.3,0.1-0.5,0.1-0.8l5.2-0.7l2.5-10.5c0.1-0.3,0.3-0.6,0.5-0.8c0.2-0.2,0.5-0.3,0.9-0.3h3.2l-1.5,11.7h8.9l-0.5,4.3h-9l-2,16.7
			c-0.1,0.9-0.2,1.7-0.3,2.2c-0.1,0.6-0.1,1-0.1,1.3c0,0.3-0.1,0.6-0.1,0.7c0,0.1,0,0.2,0,0.3c0,1.1,0.3,2,0.8,2.5
			c0.5,0.5,1.2,0.8,2.2,0.8c0.6,0,1.1-0.1,1.5-0.3c0.4-0.2,0.8-0.4,1.2-0.6s0.6-0.4,0.8-0.6c0.2-0.2,0.4-0.3,0.6-0.3s0.3,0,0.4,0.1
			s0.2,0.2,0.3,0.4l1.2,2.9c-1.1,1-2.3,1.7-3.7,2.3c-1.4,0.5-2.8,0.8-4.2,0.8c-2.2,0-3.9-0.6-5.1-1.8
			C349.9,241.7,349.3,239.9,349.3,237.7z"/>
		<path d="M369.3,244.1l4.1-34h3c0.6,0,1.1,0.1,1.5,0.4c0.4,0.3,0.5,0.7,0.5,1.3c0,0.1,0,0.2,0,0.4c0,0.2,0,0.3,0,0.5
			c0,0.2,0,0.3,0,0.5c0,0.1,0,0.2,0,0.2l-0.5,6.2c1.5-3.1,3.1-5.6,4.9-7.3c1.8-1.7,3.7-2.6,5.7-2.6c0.9,0,1.9,0.2,2.8,0.6l-1.1,5.7
			c-1.1-0.4-2.1-0.6-3.1-0.6c-2.2,0-4.1,1.1-5.8,3.2c-1.7,2.1-3.1,5.3-4.3,9.6l-1.9,15.8H369.3z"/>
		<path d="M416.5,244.1h-3.1c-0.8,0-1.3-0.2-1.6-0.6s-0.4-0.9-0.4-1.5l0.6-6.8c-0.8,1.4-1.7,2.7-2.6,3.9c-0.9,1.2-1.9,2.1-3,2.9
			c-1,0.8-2.1,1.4-3.3,1.9c-1.1,0.4-2.3,0.7-3.6,0.7c-1.3,0-2.6-0.3-3.7-0.8c-1.1-0.5-2-1.3-2.8-2.3c-0.8-1-1.4-2.3-1.8-3.8
			c-0.4-1.5-0.6-3.2-0.6-5.1c0-2,0.3-4,0.8-5.9c0.5-1.9,1.2-3.7,2.1-5.4c0.9-1.7,2-3.3,3.3-4.7c1.3-1.4,2.7-2.7,4.3-3.7
			c1.6-1,3.3-1.8,5.2-2.4c1.8-0.6,3.8-0.9,5.8-0.9c1.5,0,2.9,0.1,4.2,0.4c1.4,0.2,2.7,0.7,4.1,1.2L416.5,244.1z M401.9,239.6
			c1.1,0,2.2-0.3,3.2-1c1-0.7,2-1.6,3-2.8c0.9-1.2,1.8-2.6,2.6-4.2c0.8-1.6,1.5-3.4,2.2-5.4l1.4-11.5c-0.5-0.4-1-0.6-1.5-0.6
			c-0.5,0-1,0-1.4,0c-1.3,0-2.6,0.2-3.9,0.7c-1.3,0.4-2.4,1-3.5,1.8c-1.1,0.8-2.1,1.7-3,2.8c-0.9,1.1-1.7,2.3-2.3,3.6
			c-0.6,1.3-1.1,2.7-1.5,4.1c-0.4,1.5-0.5,3-0.5,4.5C396.7,236.9,398.4,239.6,401.9,239.6z"/>
		<path d="M439,244.1l6-49.4h5.9l-6,49.4H439z"/>
		<path d="M479.3,244.1h-3.1c-0.8,0-1.3-0.2-1.6-0.6c-0.3-0.4-0.4-0.9-0.4-1.5l0.6-6.8c-0.8,1.4-1.7,2.7-2.6,3.9
			c-0.9,1.2-1.9,2.1-3,2.9c-1,0.8-2.1,1.4-3.3,1.9c-1.1,0.4-2.3,0.7-3.6,0.7c-1.3,0-2.6-0.3-3.7-0.8c-1.1-0.5-2-1.3-2.8-2.3
			c-0.8-1-1.4-2.3-1.8-3.8c-0.4-1.5-0.6-3.2-0.6-5.1c0-2,0.3-4,0.8-5.9c0.5-1.9,1.2-3.7,2.1-5.4c0.9-1.7,2-3.3,3.3-4.7
			s2.7-2.7,4.3-3.7c1.6-1,3.3-1.8,5.2-2.4c1.8-0.6,3.8-0.9,5.8-0.9c1.5,0,2.9,0.1,4.2,0.4c1.4,0.2,2.7,0.7,4.1,1.2L479.3,244.1z
			 M464.7,239.6c1.1,0,2.2-0.3,3.2-1c1-0.7,2-1.6,3-2.8c0.9-1.2,1.8-2.6,2.6-4.2c0.8-1.6,1.5-3.4,2.2-5.4l1.4-11.5
			c-0.5-0.4-1-0.6-1.5-0.6c-0.5,0-1,0-1.4,0c-1.3,0-2.6,0.2-3.9,0.7c-1.3,0.4-2.4,1-3.5,1.8c-1.1,0.8-2.1,1.7-3,2.8
			c-0.9,1.1-1.7,2.3-2.3,3.6c-0.6,1.3-1.1,2.7-1.5,4.1c-0.4,1.5-0.5,3-0.5,4.5C459.5,236.9,461.3,239.6,464.7,239.6z"/>
		<path d="M524.2,244.1c-0.8,0-1.3-0.2-1.6-0.6c-0.3-0.4-0.4-0.9-0.4-1.5l0.6-7.1c-0.8,1.5-1.8,2.8-2.8,4c-1,1.2-2.1,2.2-3.2,3
			c-1.1,0.8-2.3,1.5-3.5,1.9c-1.2,0.5-2.4,0.7-3.6,0.7c-2.9,0-5.2-1.1-6.8-3.2c-1.6-2.1-2.4-5.2-2.4-9.2c0-1.8,0.2-3.7,0.6-5.5
			c0.4-1.8,0.9-3.6,1.6-5.3s1.6-3.2,2.6-4.7c1-1.4,2.1-2.7,3.3-3.7c1.2-1.1,2.5-1.9,4-2.5c1.4-0.6,2.9-0.9,4.5-0.9
			c1.7,0,3.2,0.3,4.5,1c1.4,0.7,2.5,1.6,3.5,2.8l2.3-18.7h5.9l-6.1,49.4H524.2z M512,239.8c1.1,0,2.2-0.3,3.2-1
			c1.1-0.7,2.1-1.6,3.2-2.8c1-1.2,2-2.6,2.9-4.2c0.9-1.6,1.6-3.4,2.3-5.3l1.1-9c-0.9-1.2-1.9-2-3.1-2.5c-1.2-0.5-2.4-0.7-3.6-0.7
			c-1.8,0-3.4,0.5-4.8,1.6c-1.4,1.1-2.6,2.4-3.6,4.1c-1,1.7-1.8,3.5-2.3,5.6c-0.5,2.1-0.8,4.1-0.8,6.1c0,2.7,0.5,4.7,1.4,6.1
			C508.9,239.1,510.3,239.8,512,239.8z"/>
		<path d="M563.7,217.4c0,1.5-0.3,2.8-0.9,4.1c-0.6,1.2-1.7,2.4-3.3,3.4c-1.6,1-3.8,1.9-6.6,2.6c-2.8,0.7-6.4,1.3-10.9,1.8
			c0,0.2,0,0.5,0,0.7c0,0.2,0,0.5,0,0.7c0,3,0.7,5.3,2,6.9c1.3,1.6,3.3,2.4,5.9,2.4c1.1,0,2-0.1,2.9-0.3c0.8-0.2,1.6-0.5,2.2-0.8
			c0.7-0.3,1.2-0.7,1.7-1.1c0.5-0.4,1-0.7,1.4-1.1c0.4-0.3,0.8-0.6,1.2-0.8c0.4-0.2,0.7-0.3,1.1-0.3c0.4,0,0.8,0.2,1.1,0.6l1.5,1.8
			c-1.1,1.2-2.3,2.2-3.3,3c-1.1,0.8-2.2,1.5-3.3,2.1c-1.1,0.6-2.3,1-3.6,1.2c-1.2,0.3-2.6,0.4-4,0.4c-1.9,0-3.7-0.3-5.2-1
			c-1.5-0.6-2.9-1.6-3.9-2.8c-1.1-1.2-1.9-2.6-2.5-4.3c-0.6-1.7-0.9-3.6-0.9-5.7c0-1.7,0.2-3.5,0.6-5.2c0.4-1.7,0.9-3.4,1.6-5
			c0.7-1.6,1.6-3,2.6-4.4c1-1.3,2.2-2.5,3.5-3.5c1.3-1,2.8-1.7,4.3-2.3c1.6-0.6,3.3-0.8,5.1-0.8c1.7,0,3.2,0.2,4.5,0.7
			c1.3,0.5,2.3,1.1,3.1,1.9c0.8,0.8,1.4,1.6,1.8,2.5C563.5,215.7,563.7,216.5,563.7,217.4z M553.4,213.9c-1.4,0-2.7,0.3-3.9,0.9
			c-1.2,0.6-2.2,1.4-3.2,2.4c-0.9,1-1.7,2.2-2.4,3.6s-1.2,2.9-1.5,4.4c3.4-0.4,6.2-0.9,8.3-1.5c2.1-0.5,3.7-1.1,4.8-1.8
			c1.1-0.6,1.9-1.3,2.2-2.1c0.4-0.7,0.5-1.5,0.5-2.3c0-0.4-0.1-0.8-0.3-1.3c-0.2-0.4-0.5-0.8-0.9-1.2c-0.4-0.4-0.9-0.7-1.5-0.9
			C555.1,214,554.3,213.9,553.4,213.9z"/>
		<path d="M589.3,215.5c-0.2,0.3-0.4,0.5-0.5,0.6c-0.2,0.1-0.4,0.2-0.7,0.2c-0.3,0-0.7-0.1-1-0.4c-0.4-0.2-0.8-0.5-1.3-0.8
			s-1.2-0.6-1.9-0.8c-0.8-0.3-1.7-0.4-2.8-0.4c-1,0-1.9,0.1-2.8,0.4c-0.8,0.3-1.5,0.7-2.1,1.2c-0.6,0.5-1.1,1.1-1.4,1.7
			c-0.3,0.7-0.5,1.4-0.5,2.1c0,1.1,0.3,1.9,1,2.5c0.7,0.6,1.6,1.2,2.6,1.6c1.1,0.5,2.2,0.9,3.4,1.3c1.2,0.4,2.4,1,3.4,1.6
			c1.1,0.7,1.9,1.5,2.6,2.5c0.7,1,1,2.3,1,3.9c0,1.6-0.3,3.1-0.9,4.5s-1.5,2.7-2.7,3.8c-1.2,1.1-2.5,2-4.2,2.6c-1.6,0.6-3.4,1-5.5,1
			c-2.2,0-4.1-0.4-5.8-1.2c-1.7-0.8-3-1.8-4.1-3l1.5-2.3c0.2-0.3,0.4-0.5,0.6-0.7c0.2-0.2,0.6-0.2,0.9-0.2c0.4,0,0.7,0.2,1.1,0.5
			c0.4,0.3,0.8,0.7,1.3,1.1c0.5,0.4,1.2,0.7,2,1.1c0.8,0.3,1.9,0.5,3.1,0.5c1.1,0,2.1-0.2,3-0.5c0.9-0.3,1.6-0.8,2.2-1.3
			s1.1-1.2,1.4-2c0.3-0.7,0.5-1.5,0.5-2.4c0-1.1-0.3-2-1-2.7c-0.7-0.7-1.6-1.2-2.6-1.7c-1.1-0.4-2.2-0.9-3.4-1.3
			c-1.2-0.4-2.3-0.9-3.4-1.5c-1.1-0.6-1.9-1.4-2.6-2.4c-0.7-1-1-2.3-1-3.9c0-1.4,0.3-2.8,0.9-4.1c0.6-1.3,1.4-2.5,2.5-3.5
			c1.1-1,2.4-1.9,3.9-2.5c1.5-0.6,3.3-0.9,5.2-0.9c2,0,3.8,0.3,5.4,1c1.6,0.7,2.9,1.6,4,2.8L589.3,215.5z"/>
		<path d="M604.4,210.1l-4.1,34h-5.9l4.1-34H604.4z M606.6,199.4c0,0.6-0.1,1.1-0.4,1.6c-0.2,0.5-0.5,1-0.9,1.3
			c-0.4,0.4-0.8,0.7-1.3,0.9c-0.5,0.2-1,0.3-1.5,0.3c-0.5,0-1-0.1-1.5-0.3c-0.5-0.2-0.9-0.5-1.3-0.9c-0.4-0.4-0.7-0.8-0.9-1.3
			c-0.2-0.5-0.3-1-0.3-1.6c0-0.6,0.1-1.1,0.3-1.6c0.2-0.5,0.5-1,0.9-1.4c0.4-0.4,0.8-0.7,1.3-0.9c0.5-0.2,1-0.4,1.5-0.4
			c0.5,0,1.1,0.1,1.5,0.3c0.5,0.2,0.9,0.5,1.3,0.9c0.4,0.4,0.7,0.8,0.9,1.4C606.5,198.3,606.6,198.8,606.6,199.4z"/>
		<path d="M609.9,244.1l4.1-34h3c1.3,0,2,0.7,2,2l-0.5,6.6c1.8-3,3.9-5.3,6.1-6.8c2.3-1.5,4.6-2.3,7.1-2.3c2.5,0,4.5,0.9,5.9,2.6
			c1.4,1.7,2.1,4.2,2.1,7.5c0,0.4,0,0.9,0,1.4c0,0.5-0.1,1-0.1,1.5l-2.6,21.7h-6l2.6-21.7c0-0.4,0.1-0.9,0.1-1.3
			c0-0.4,0.1-0.8,0.1-1.2c0-1.8-0.3-3.2-1-4.1c-0.7-0.9-1.8-1.3-3.2-1.3c-1.1,0-2.2,0.3-3.3,0.9c-1.1,0.6-2.2,1.4-3.2,2.5
			c-1,1.1-2,2.4-2.9,3.9c-0.9,1.5-1.6,3.2-2.3,5.1l-1.9,17.3H609.9z"/>
		<path d="M655.4,215L652,243l-1.5,6.9c-0.4,1.7-1.4,2.5-3.1,2.5H645l4.5-37.3l-3.4-0.4c-0.4-0.1-0.7-0.3-0.9-0.5
			c-0.2-0.2-0.3-0.5-0.3-0.9l0.3-2.6h4.9l0.4-3.3c0.2-1.9,0.7-3.7,1.5-5.2c0.7-1.5,1.6-2.8,2.8-3.8c1.1-1,2.4-1.8,3.8-2.4
			c1.4-0.5,2.9-0.8,4.6-0.8c1.4,0,2.7,0.2,3.8,0.7l-0.6,3.1c0,0.3-0.2,0.5-0.5,0.6c-0.3,0.1-0.6,0.1-1,0.1c-0.2,0-0.4,0-0.7,0
			c-0.2,0-0.5,0-0.8,0c-1,0-1.9,0.1-2.7,0.4c-0.8,0.3-1.5,0.7-2.2,1.4c-0.6,0.6-1.2,1.4-1.6,2.4c-0.4,1-0.7,2.2-0.9,3.7l-0.4,3.1
			h8.5l-0.6,4.3H655.4z"/>
		<path d="M677.7,244.6c-1.9,0-3.6-0.3-5.1-1c-1.5-0.6-2.9-1.6-4-2.8c-1.1-1.2-2-2.7-2.6-4.4c-0.6-1.7-0.9-3.7-0.9-6
			c0-2.9,0.4-5.6,1.3-8.1c0.9-2.5,2.1-4.7,3.7-6.6c1.6-1.9,3.4-3.4,5.5-4.5c2.1-1.1,4.4-1.6,6.9-1.6c1.9,0,3.6,0.3,5.1,1
			c1.5,0.6,2.9,1.6,4,2.8c1.1,1.2,2,2.7,2.6,4.4c0.6,1.8,0.9,3.7,0.9,6c0,2.8-0.4,5.5-1.3,8.1c-0.9,2.5-2.1,4.7-3.7,6.6
			c-1.6,1.9-3.4,3.4-5.5,4.5C682.4,244,680.1,244.6,677.7,244.6z M678.2,239.9c1.6,0,3.1-0.4,4.5-1.3c1.3-0.9,2.5-2.1,3.4-3.6
			c0.9-1.5,1.7-3.2,2.2-5.2c0.5-1.9,0.8-4,0.8-6.1c0-3.1-0.6-5.5-1.8-7.1c-1.2-1.6-3-2.4-5.3-2.4c-1.7,0-3.1,0.4-4.5,1.3
			c-1.3,0.9-2.5,2.1-3.4,3.6c-0.9,1.5-1.7,3.2-2.2,5.2c-0.5,1.9-0.8,4-0.8,6.1c0,3.1,0.6,5.5,1.8,7.1
			C674.1,239.1,675.9,239.9,678.2,239.9z"/>
		<path d="M699.3,244.1l4.1-34h3c0.6,0,1.1,0.1,1.5,0.4c0.4,0.3,0.5,0.7,0.5,1.3c0,0.1,0,0.2,0,0.4c0,0.2,0,0.3,0,0.5
			c0,0.2,0,0.3,0,0.5c0,0.1,0,0.2,0,0.2l-0.5,6.2c1.5-3.1,3.1-5.6,4.9-7.3c1.8-1.7,3.7-2.6,5.7-2.6c0.9,0,1.9,0.2,2.8,0.6l-1.1,5.7
			c-1.1-0.4-2.1-0.6-3.1-0.6c-2.2,0-4.1,1.1-5.8,3.2c-1.7,2.1-3.1,5.3-4.3,9.6l-1.9,15.8H699.3z"/>
		<path d="M722.9,244.1l4.1-34h3c1.3,0,2,0.7,2,2l-0.5,6.1c1.7-2.8,3.5-5,5.5-6.4c2-1.4,4.1-2.2,6.3-2.2c2.3,0,4,0.8,5.1,2.4
			c1.1,1.6,1.6,3.8,1.6,6.8c1.7-3.1,3.6-5.4,5.7-6.9c2.1-1.5,4.3-2.2,6.7-2.2c2.5,0,4.4,0.8,5.6,2.5c1.2,1.6,1.9,4,1.9,7.1
			c0,0.5,0,1.1-0.1,1.6s-0.1,1.1-0.2,1.7l-2.6,21.7h-5.9l2.6-21.7c0.1-1.1,0.2-2.1,0.2-3c0-1.7-0.3-2.9-0.8-3.7
			c-0.6-0.8-1.5-1.2-2.8-1.2c-1,0-1.9,0.2-2.9,0.7c-1,0.5-1.9,1.2-2.8,2.1c-0.9,0.9-1.7,2.1-2.5,3.5c-0.8,1.4-1.5,3-2.1,4.8
			l-2.2,18.5H742l2.6-21.7c0.1-0.6,0.1-1.2,0.2-1.7c0-0.5,0.1-1,0.1-1.5c0-1.6-0.3-2.8-0.8-3.5c-0.5-0.8-1.4-1.1-2.8-1.1
			c-1.1,0-2.1,0.3-3.1,0.8c-1,0.5-1.9,1.3-2.8,2.3c-0.9,1-1.7,2.3-2.5,3.7c-0.8,1.5-1.5,3.1-2.1,5l-2.1,17.7H722.9z"/>
		<path d="M800.5,244.1h-3.1c-0.8,0-1.3-0.2-1.6-0.6c-0.3-0.4-0.4-0.9-0.4-1.5l0.6-6.8c-0.8,1.4-1.7,2.7-2.6,3.9
			c-0.9,1.2-1.9,2.1-3,2.9c-1,0.8-2.1,1.4-3.3,1.9c-1.1,0.4-2.3,0.7-3.6,0.7c-1.3,0-2.6-0.3-3.7-0.8c-1.1-0.5-2-1.3-2.8-2.3
			c-0.8-1-1.4-2.3-1.8-3.8c-0.4-1.5-0.6-3.2-0.6-5.1c0-2,0.3-4,0.8-5.9c0.5-1.9,1.2-3.7,2.1-5.4c0.9-1.7,2-3.3,3.3-4.7
			c1.3-1.4,2.7-2.7,4.3-3.7c1.6-1,3.3-1.8,5.2-2.4c1.8-0.6,3.8-0.9,5.8-0.9c1.5,0,2.9,0.1,4.2,0.4c1.4,0.2,2.7,0.7,4.1,1.2
			L800.5,244.1z M785.8,239.6c1.1,0,2.2-0.3,3.2-1c1.1-0.7,2-1.6,3-2.8c0.9-1.2,1.8-2.6,2.6-4.2c0.8-1.6,1.5-3.4,2.2-5.4l1.4-11.5
			c-0.5-0.4-1-0.6-1.5-0.6c-0.5,0-1,0-1.4,0c-1.3,0-2.6,0.2-3.9,0.7c-1.3,0.4-2.4,1-3.5,1.8c-1.1,0.8-2.1,1.7-3,2.8
			c-0.9,1.1-1.7,2.3-2.3,3.6c-0.6,1.3-1.1,2.7-1.5,4.1c-0.4,1.5-0.5,3-0.5,4.5C780.7,236.9,782.4,239.6,785.8,239.6z"/>
		<path d="M831.2,241.2c-1,0.9-2.1,1.5-3.1,2c-1.1,0.5-2.1,0.9-3.3,1.1c-1.1,0.2-2.3,0.3-3.6,0.3c-2,0-3.7-0.3-5.2-1
			c-1.5-0.7-2.8-1.6-3.8-2.8c-1-1.2-1.8-2.7-2.3-4.4c-0.5-1.7-0.8-3.6-0.8-5.7c0-2.8,0.4-5.4,1.3-7.9c0.9-2.5,2.1-4.8,3.6-6.7
			c1.5-1.9,3.4-3.5,5.5-4.7c2.1-1.2,4.5-1.7,7-1.7c2.2,0,4.1,0.4,5.6,1.2c1.5,0.8,2.9,2,4,3.5l-1.9,2.2c-0.1,0.2-0.3,0.3-0.5,0.4
			s-0.4,0.2-0.7,0.2c-0.3,0-0.6-0.1-0.9-0.4c-0.3-0.3-0.7-0.6-1.2-0.9c-0.5-0.3-1.1-0.7-1.8-0.9c-0.7-0.3-1.7-0.4-2.8-0.4
			c-1.5,0-3,0.4-4.4,1.3c-1.4,0.8-2.6,2-3.6,3.4c-1,1.5-1.8,3.2-2.4,5.2c-0.6,2-0.9,4.1-0.9,6.4c0,1.4,0.2,2.6,0.5,3.8
			c0.3,1.1,0.8,2.1,1.4,2.9c0.6,0.8,1.4,1.4,2.3,1.8c0.9,0.4,2,0.7,3.2,0.7c1,0,1.9-0.1,2.7-0.3c0.8-0.2,1.5-0.5,2.1-0.8
			c0.6-0.3,1.1-0.7,1.6-1c0.5-0.4,0.9-0.7,1.2-1c0.4-0.3,0.7-0.6,1-0.8c0.3-0.2,0.6-0.3,0.9-0.3c0.4,0,0.8,0.2,1.1,0.6l1.5,1.8
			C833.3,239.3,832.2,240.3,831.2,241.2z"/>
		<path d="M849.2,210.1l-4.1,34h-5.9l4.1-34H849.2z M851.5,199.4c0,0.6-0.1,1.1-0.4,1.6c-0.2,0.5-0.5,1-0.9,1.3
			c-0.4,0.4-0.8,0.7-1.3,0.9c-0.5,0.2-1,0.3-1.5,0.3c-0.5,0-1-0.1-1.5-0.3c-0.5-0.2-0.9-0.5-1.3-0.9c-0.4-0.4-0.7-0.8-0.9-1.3
			c-0.2-0.5-0.3-1-0.3-1.6c0-0.6,0.1-1.1,0.3-1.6c0.2-0.5,0.5-1,0.9-1.4c0.4-0.4,0.8-0.7,1.3-0.9c0.5-0.2,1-0.4,1.5-0.4
			c0.5,0,1.1,0.1,1.5,0.3c0.5,0.2,0.9,0.5,1.3,0.9c0.4,0.4,0.7,0.8,0.9,1.4C851.4,198.3,851.5,198.8,851.5,199.4z"/>
		<path d="M866.9,244.6c-1.9,0-3.6-0.3-5.1-1c-1.5-0.6-2.9-1.6-4-2.8c-1.1-1.2-2-2.7-2.6-4.4c-0.6-1.7-0.9-3.7-0.9-6
			c0-2.9,0.4-5.6,1.3-8.1c0.9-2.5,2.1-4.7,3.7-6.6c1.6-1.9,3.4-3.4,5.5-4.5c2.1-1.1,4.4-1.6,6.9-1.6c1.9,0,3.6,0.3,5.1,1
			c1.5,0.6,2.9,1.6,4,2.8c1.1,1.2,2,2.7,2.6,4.4c0.6,1.8,0.9,3.7,0.9,6c0,2.8-0.4,5.5-1.3,8.1c-0.9,2.5-2.1,4.7-3.7,6.6
			c-1.6,1.9-3.4,3.4-5.5,4.5C871.6,244,869.3,244.6,866.9,244.6z M867.4,239.9c1.6,0,3.1-0.4,4.5-1.3c1.3-0.9,2.5-2.1,3.4-3.6
			c0.9-1.5,1.7-3.2,2.2-5.2c0.5-1.9,0.8-4,0.8-6.1c0-3.1-0.6-5.5-1.8-7.1c-1.2-1.6-3-2.4-5.3-2.4c-1.7,0-3.1,0.4-4.5,1.3
			c-1.3,0.9-2.5,2.1-3.4,3.6c-0.9,1.5-1.7,3.2-2.2,5.2c-0.5,1.9-0.8,4-0.8,6.1c0,3.1,0.6,5.5,1.8,7.1
			C863.3,239.1,865.1,239.9,867.4,239.9z M882.2,195.4l-8.3,8.6c-0.3,0.3-0.6,0.6-1,0.7c-0.3,0.1-0.7,0.2-1.2,0.2h-3.4l5.6-8.1
			c0.3-0.5,0.7-0.8,1-1.1c0.4-0.2,0.9-0.3,1.6-0.3H882.2z"/>
		<path d="M888.5,244.1l4.1-34h3c1.3,0,2,0.7,2,2l-0.5,6.6c1.8-3,3.9-5.3,6.1-6.8c2.3-1.5,4.6-2.3,7.1-2.3c2.5,0,4.5,0.9,5.9,2.6
			c1.4,1.7,2.1,4.2,2.1,7.5c0,0.4,0,0.9,0,1.4c0,0.5-0.1,1-0.1,1.5l-2.6,21.7h-6l2.6-21.7c0-0.4,0.1-0.9,0.1-1.3
			c0-0.4,0.1-0.8,0.1-1.2c0-1.8-0.3-3.2-1-4.1c-0.7-0.9-1.8-1.3-3.2-1.3c-1.1,0-2.2,0.3-3.3,0.9c-1.1,0.6-2.2,1.4-3.2,2.5
			c-1,1.1-2,2.4-2.9,3.9c-0.9,1.5-1.6,3.2-2.3,5.1l-1.9,17.3H888.5z"/>
	</g>
	<g>
		<polygon points="48.6,85.8 48.3,85.8 48.4,85.8 		"/>
	</g>
	<g>
		<path d="M97.1,100.7l1.9-12l-3.1-2.9H82.5l0,0h0l-2.3,0l5.9-34l0-0.1H71.9l-6.5,34.1H48.3l0,0l-2.6,0l5.9-34H37.9l-6.6,34H13.7
			l-1.9,11.6l3.4,3.3l13.9,0l-4.4,23.2h-16L7,135.6l3.4,3.3h12.3h0.1L17,168.6l2.3,4.2l14.1,0l-1.9-4.6l5.2-30.4l2.6,0.9l0,0.1h0.4
			h16.9l-5.1,30.2l2.3,3.6l14,0.1l-1.9-4.6l5.2-29.9l0.1,0.1l2.3,1l0,0l0.1,0.1h0h17.8l1.9-12l-3.1-2.9H76.9l-0.6,0l-2.8,0l4.3-24.7
			l2.6,1.1h0.1l0,0H97.1z M59,123.9H41.9l0,0h-2.8l4.2-24.4l2.7,1l0,0l17.3,0.1L59,123.9z"/>
	</g>
</g>
<g>
	<g>
		<path class="st10" d="M615.6,180.6V82.7h11.7c1.2,0,2.3,0.3,3.2,0.9c0.9,0.6,1.5,1.5,1.7,2.6l1.6,7.4c3.2-3.7,6.9-6.7,11.1-8.9
			c4.2-2.3,9.1-3.4,14.7-3.4c4.4,0,8.3,0.9,11.9,2.7c3.6,1.8,6.7,4.4,9.3,7.9c2.6,3.4,4.6,7.7,6.1,12.8c1.4,5.1,2.1,10.9,2.1,17.4
			c0,6-0.8,11.5-2.4,16.6c-1.6,5.1-3.9,9.5-6.9,13.2c-3,3.7-6.6,6.7-10.8,8.7c-4.2,2.1-9,3.2-14.2,3.2c-4.5,0-8.3-0.7-11.5-2.1
			c-3.1-1.4-6-3.3-8.4-5.7v24.7H615.6z M653,96.4c-4,0-7.4,0.8-10.2,2.5c-2.8,1.7-5.5,4.1-7.9,7.1v35.8c2.2,2.7,4.6,4.6,7.1,5.6
			c2.6,1.1,5.3,1.6,8.3,1.6c2.9,0,5.5-0.5,7.9-1.6c2.4-1.1,4.4-2.7,6-5c1.6-2.2,2.9-5,3.8-8.4c0.9-3.4,1.3-7.4,1.3-12
			c0-4.7-0.4-8.6-1.1-11.9c-0.8-3.2-1.8-5.9-3.2-7.9c-1.4-2-3.1-3.5-5.1-4.4C657.8,96.8,655.5,96.4,653,96.4z"/>
	</g>
	<g>
		<path class="st10" d="M766.2,162.5h-8.6c-1.8,0-3.2-0.3-4.3-0.8c-1-0.5-1.8-1.6-2.3-3.3l-1.7-5.7c-2,1.8-4,3.4-6,4.8
			c-1.9,1.4-4,2.5-6,3.5c-2.1,0.9-4.3,1.6-6.6,2.1c-2.3,0.5-4.9,0.7-7.8,0.7c-3.4,0-6.5-0.5-9.3-1.4c-2.9-0.9-5.3-2.3-7.4-4.1
			c-2-1.8-3.6-4.1-4.8-6.8c-1.1-2.7-1.7-5.9-1.7-9.4c0-3,0.8-6,2.4-8.9c1.6-2.9,4.2-5.6,7.9-8c3.7-2.4,8.6-4.3,14.7-5.9
			c6.1-1.6,13.7-2.3,22.8-2.3v-4.7c0-5.4-1.1-9.4-3.4-12c-2.3-2.6-5.5-3.9-9.8-3.9c-3.1,0-5.7,0.4-7.8,1.1c-2.1,0.7-3.9,1.5-5.4,2.5
			c-1.5,0.9-2.9,1.7-4.2,2.5c-1.3,0.7-2.7,1.1-4.3,1.1c-1.3,0-2.4-0.3-3.3-1c-0.9-0.7-1.7-1.5-2.3-2.5l-3.5-6.1
			c9.2-8.4,20.3-12.6,33.2-12.6c4.7,0,8.8,0.8,12.5,2.3c3.7,1.5,6.8,3.7,9.3,6.4c2.5,2.7,4.5,6,5.8,9.8c1.3,3.8,2,7.9,2,12.4V162.5z
			 M728.8,150.5c2,0,3.8-0.2,5.4-0.5c1.7-0.4,3.2-0.9,4.7-1.6c1.5-0.7,2.9-1.6,4.3-2.6s2.8-2.3,4.2-3.7v-13.4
			c-5.6,0-10.3,0.4-14,1.1s-6.8,1.6-9.1,2.7c-2.3,1.1-3.9,2.4-4.9,3.8c-1,1.5-1.4,3.1-1.4,4.8c0,3.4,1,5.8,3,7.3
			C723,149.8,725.6,150.5,728.8,150.5z"/>
	</g>
	<g>
		<path class="st10" d="M785.1,162.5V82.7h11.3c2,0,3.3,0.4,4.1,1.1s1.3,2,1.6,3.7l1.2,9.6c2.9-4.9,6.2-8.8,10-11.7
			c3.8-2.9,8.1-4.3,12.9-4.3c3.9,0,7.2,0.9,9.8,2.7l-2.5,14.4c-0.2,0.9-0.5,1.6-1,2c-0.5,0.4-1.2,0.6-2.1,0.6
			c-0.8,0-1.8-0.2-3.2-0.5c-1.3-0.4-3.1-0.5-5.4-0.5c-4,0-7.4,1.1-10.3,3.3c-2.9,2.2-5.3,5.4-7.2,9.7v49.7H785.1z"/>
	</g>
	<g>
		<path class="st10" d="M882.7,81.4c6,0,11.4,1,16.2,2.9c4.8,1.9,9,4.6,12.4,8.2c3.4,3.5,6.1,7.8,7.9,12.9c1.9,5.1,2.8,10.8,2.8,17
			c0,6.3-0.9,12-2.8,17.1c-1.9,5.1-4.5,9.4-7.9,13c-3.4,3.6-7.6,6.3-12.4,8.2c-4.8,1.9-10.3,2.9-16.2,2.9c-6,0-11.4-1-16.3-2.9
			c-4.9-1.9-9-4.7-12.5-8.2c-3.4-3.6-6.1-7.9-8-13c-1.9-5.1-2.8-10.8-2.8-17.1c0-6.3,0.9-12,2.8-17c1.9-5.1,4.6-9.4,8-12.9
			c3.4-3.5,7.6-6.2,12.5-8.2C871.3,82.4,876.7,81.4,882.7,81.4z M882.7,148.9c6.6,0,11.6-2.2,14.7-6.7c3.2-4.5,4.8-11,4.8-19.6
			c0-8.6-1.6-15.2-4.8-19.7c-3.2-4.5-8.1-6.8-14.7-6.8c-6.7,0-11.7,2.3-14.9,6.8c-3.2,4.5-4.8,11.1-4.8,19.6s1.6,15.1,4.8,19.6
			C871,146.6,875.9,148.9,882.7,148.9z"/>
	</g>
</g>
</svg>
